solid Joint
facet normal 0 -0.0749756 0.997185
  outer loop
    vertex 1 0.5 0.65
    vertex 1.018621367370014 0.4775706254738881 0.6483135973482115
    vertex 1.030064126288223 0.5 0.65
  endloop
endfacet
facet normal 0 0.0713392 0.997452
  outer loop
    vertex 1.030064126288223 0.5 0.65
    vertex 1.014954325589856 0.5213472257409928 0.6484732162821398
    vertex 1 0.5 0.65
  endloop
endfacet
facet normal -0.0815047 -0.141841 0.986528
  outer loop
    vertex 1 0.4577401164737856 0.6439239460421746
    vertex 1.018621367370014 0.4775706254738881 0.6483135973482115
    vertex 1 0.5 0.65
  endloop
endfacet
facet normal -0.101568 0.141579 0.984703
  outer loop
    vertex 1 0.5 0.65
    vertex 1.014954325589856 0.5213472257409928 0.6484732162821398
    vertex 1 0.5422598835262145 0.6439239460421746
  endloop
endfacet
facet normal 0 -0.0767572 0.99705
  outer loop
    vertex 1.060128252576445 0.5 0.65
    vertex 1.069325066484759 0.4770407871424028 0.6482325016484561
    vertex 1.090192378864668 0.5 0.65
  endloop
endfacet
facet normal 0 0.0750094 0.997183
  outer loop
    vertex 1.090192378864668 0.5 0.65
    vertex 1.070860271003121 0.5224394210223779 0.6483120776746805
    vertex 1.060128252576445 0.5 0.65
  endloop
endfacet
facet normal 0.0725503 -0.14194 0.987213
  outer loop
    vertex 1.090192378864668 0.5 0.65
    vertex 1.069325066484759 0.4770407871424028 0.6482325016484561
    vertex 1.090192378864669 0.4577401164737856 0.6439239460421746
  endloop
endfacet
facet normal 0.0785232 0.141875 0.986765
  outer loop
    vertex 1.090192378864669 0.5422598835262145 0.6439239460421746
    vertex 1.070860271003121 0.5224394210223779 0.6483120776746805
    vertex 1.090192378864668 0.5 0.65
  endloop
endfacet
facet normal 0 -0.0867877 0.996227
  outer loop
    vertex 1.030064126288223 0.5 0.65
    vertex 1.045096189432334 0.4740619421915148 0.6477403707763172
    vertex 1.060128252576445 0.5 0.65
  endloop
endfacet
facet normal 0 0.0835812 0.996501
  outer loop
    vertex 1.060128252576445 0.5 0.65
    vertex 1.044257514422512 0.5249866249681314 0.6479042547484756
    vertex 1.030064126288223 0.5 0.65
  endloop
endfacet
facet normal 0.0109109 -0.0805051 0.996694
  outer loop
    vertex 1.030064126288223 0.5 0.65
    vertex 1.018621367370014 0.4775706254738881 0.6483135973482115
    vertex 1.045096189432334 0.4740619421915148 0.6477403707763172
  endloop
endfacet
facet normal 0.00965233 0.0781315 0.996896
  outer loop
    vertex 1.044257514422512 0.5249866249681314 0.6479042547484756
    vertex 1.014954325589856 0.5213472257409928 0.6484732162821398
    vertex 1.030064126288223 0.5 0.65
  endloop
endfacet
facet normal -0.0103033 -0.0808553 0.996673
  outer loop
    vertex 1.045096189432334 0.4740619421915148 0.6477403707763172
    vertex 1.069325066484759 0.4770407871424028 0.6482325016484561
    vertex 1.060128252576445 0.5 0.65
  endloop
endfacet
facet normal -0.00774746 0.0786911 0.996869
  outer loop
    vertex 1.060128252576445 0.5 0.65
    vertex 1.070860271003121 0.5224394210223779 0.6483120776746805
    vertex 1.044257514422512 0.5249866249681314 0.6479042547484756
  endloop
endfacet
facet normal -0.0666685 -0.414491 0.907608
  outer loop
    vertex 1 0.4189038773816605 0.6261880299246773
    vertex 1.022850160776588 0.4376877480497172 0.6364447993031778
    vertex 1 0.4577401164737856 0.6439239460421746
  endloop
endfacet
facet normal 0.069891 -0.277717 0.958117
  outer loop
    vertex 1 0.4577401164737856 0.6439239460421746
    vertex 1.022850160776588 0.4376877480497172 0.6364447993031778
    vertex 1.018621367370014 0.4775706254738881 0.6483135973482115
  endloop
endfacet
facet normal -3.0694e-15 -0.654861 0.75575
  outer loop
    vertex 1 0.3866375638468614 0.5982291100917929
    vertex 1.030985167031041 0.3866375638468615 0.5982291100917931
    vertex 1 0.4189038773816605 0.6261880299246773
  endloop
endfacet
facet normal 0.027826 -0.504927 0.862713
  outer loop
    vertex 1.047900791664229 0.4069303371500356 0.6176351897052661
    vertex 1.022850160776588 0.4376877480497172 0.6364447993031778
    vertex 1 0.4189038773816605 0.6261880299246773
  endloop
endfacet
facet normal -0.0369147 -0.674426 0.737419
  outer loop
    vertex 1 0.4189038773816605 0.6261880299246773
    vertex 1.030985167031041 0.3866375638468615 0.5982291100917931
    vertex 1.047900791664229 0.4069303371500356 0.6176351897052661
  endloop
endfacet
facet normal -8.19568e-16 -0.841254 0.540641
  outer loop
    vertex 1 0.3635552006968223 0.5623122519502832
    vertex 1.030985167031041 0.3866375638468615 0.5982291100917931
    vertex 1 0.3866375638468614 0.5982291100917929
  endloop
endfacet
facet normal -0.0412929 -0.958675 0.281492
  outer loop
    vertex 1 0.3515267837178602 0.5213472257409932
    vertex 1.036942943466778 0.3560760539578255 0.5422598835262148
    vertex 1 0.3635552006968223 0.5623122519502832
  endloop
endfacet
facet normal 0.0273196 -0.919077 0.39313
  outer loop
    vertex 1.036942943466778 0.3560760539578255 0.5422598835262148
    vertex 1.051276075442999 0.3715851941937421 0.577521852723868
    vertex 1 0.3635552006968223 0.5623122519502832
  endloop
endfacet
facet normal -0.0377471 -0.825527 0.563098
  outer loop
    vertex 1.051276075442999 0.3715851941937421 0.577521852723868
    vertex 1.030985167031041 0.3866375638468615 0.5982291100917931
    vertex 1 0.3635552006968223 0.5623122519502832
  endloop
endfacet
facet normal -0.0412929 -0.999147 2.59817e-15
  outer loop
    vertex 1 0.3515267837178601 0.4786527742590078
    vertex 1.036942943466784 0.35 0.5000000000000006
    vertex 1 0.3515267837178602 0.5213472257409932
  endloop
endfacet
facet normal 0.0412929 -0.988977 0.142193
  outer loop
    vertex 1 0.3515267837178602 0.5213472257409932
    vertex 1.036942943466784 0.35 0.5000000000000006
    vertex 1.036942943466778 0.3560760539578255 0.5422598835262148
  endloop
endfacet
facet normal -0.0682457 -0.957256 -0.281076
  outer loop
    vertex 1 0.363555200696822 0.4376877480497177
    vertex 1.022319707368978 0.356073126908553 0.4577500863655498
    vertex 1 0.3515267837178601 0.4786527742590078
  endloop
endfacet
facet normal 0.051428 -0.985856 -0.15951
  outer loop
    vertex 1 0.3515267837178601 0.4786527742590078
    vertex 1.022319707368978 0.356073126908553 0.4577500863655498
    vertex 1.036942943466784 0.35 0.5000000000000006
  endloop
endfacet
facet normal -0.0412929 -0.840536 -0.54018
  outer loop
    vertex 1 0.3866375638468608 0.4017708899082079
    vertex 1.036942943466779 0.3738119700753224 0.418903877381661
    vertex 1 0.363555200696822 0.4376877480497177
  endloop
endfacet
facet normal 0.0514715 -0.91562 -0.398736
  outer loop
    vertex 1.036942943466779 0.3738119700753224 0.418903877381661
    vertex 1.022319707368978 0.356073126908553 0.4577500863655498
    vertex 1 0.363555200696822 0.4376877480497177
  endloop
endfacet
facet normal -0.0684148 -0.653326 -0.753979
  outer loop
    vertex 1 0.4189038773816597 0.3738119700753232
    vertex 1.022264268366849 0.4017708899082066 0.3866375638468618
    vertex 1 0.3866375638468608 0.4017708899082079
  endloop
endfacet
facet normal 0.0514977 -0.743034 -0.66727
  outer loop
    vertex 1 0.3866375638468608 0.4017708899082079
    vertex 1.022264268366849 0.4017708899082066 0.3866375638468618
    vertex 1.036942943466779 0.3738119700753224 0.418903877381661
  endloop
endfacet
facet normal -0.0682457 -0.414446 -0.907511
  outer loop
    vertex 1 0.4577401164737849 0.3560760539578256
    vertex 1.022319707368976 0.4376782964986196 0.3635595174712211
    vertex 1 0.4189038773816597 0.3738119700753232
  endloop
endfacet
facet normal 0.0682972 -0.539482 -0.839223
  outer loop
    vertex 1 0.4189038773816597 0.3738119700753232
    vertex 1.022319707368976 0.4376782964986196 0.3635595174712211
    vertex 1.022264268366849 0.4017708899082066 0.3866375638468618
  endloop
endfacet
facet normal -0.0412929 -0.142193 -0.988977
  outer loop
    vertex 1 0.4999999999999994 0.35
    vertex 1.036942943466778 0.4786527742590065 0.3515267837178602
    vertex 1 0.4577401164737849 0.3560760539578256
  endloop
endfacet
facet normal 0.0514715 -0.29826 -0.953096
  outer loop
    vertex 1.036942943466778 0.4786527742590065 0.3515267837178602
    vertex 1.022319707368976 0.4376782964986196 0.3635595174712211
    vertex 1 0.4577401164737849 0.3560760539578256
  endloop
endfacet
facet normal -0.0682457 0.141983 -0.987514
  outer loop
    vertex 1 0.5422598835262139 0.3560760539578253
    vertex 1.022319707368974 0.5213369407657975 0.3515253053252614
    vertex 1 0.4999999999999994 0.35
  endloop
endfacet
facet normal 0.051428 0.0175842 -0.998522
  outer loop
    vertex 1 0.4999999999999994 0.35
    vertex 1.022319707368974 0.5213369407657975 0.3515253053252614
    vertex 1.036942943466778 0.4786527742590065 0.3515267837178602
  endloop
endfacet
facet normal -0.0412929 0.415061 -0.908856
  outer loop
    vertex 1 0.5810961226183392 0.3738119700753225
    vertex 1.036942943466778 0.5623122519502824 0.363555200696822
    vertex 1 0.5422598835262139 0.3560760539578253
  endloop
endfacet
facet normal 0.0514715 0.264371 -0.963047
  outer loop
    vertex 1.036942943466778 0.5623122519502824 0.363555200696822
    vertex 1.022319707368974 0.5213369407657975 0.3515253053252614
    vertex 1 0.5422598835262139 0.3560760539578253
  endloop
endfacet
facet normal -0.0682457 0.653334 -0.753988
  outer loop
    vertex 1 0.6133624361531385 0.4017708899082069
    vertex 1.022319707368973 0.5982212570994545 0.3866307596664649
    vertex 1 0.5810961226183392 0.3738119700753225
  endloop
endfacet
facet normal 0.051428 0.554634 -0.830503
  outer loop
    vertex 1 0.5810961226183392 0.3738119700753225
    vertex 1.022319707368973 0.5982212570994545 0.3866307596664649
    vertex 1.036942943466778 0.5623122519502824 0.363555200696822
  endloop
endfacet
facet normal -0.0682457 0.839292 -0.53938
  outer loop
    vertex 1 0.6364447993031777 0.4376877480497167
    vertex 1.022319707368972 0.6261824119928456 0.4188951363747663
    vertex 1 0.6133624361531385 0.4017708899082069
  endloop
endfacet
facet normal 0.0682457 0.753942 -0.653386
  outer loop
    vertex 1.022319707368972 0.6261824119928456 0.4188951363747663
    vertex 1.022319707368973 0.5982212570994545 0.3866307596664649
    vertex 1 0.6133624361531385 0.4017708899082069
  endloop
endfacet
facet normal -0.0412929 0.958675 -0.281492
  outer loop
    vertex 1 0.6484732162821398 0.4786527742590068
    vertex 1.036942943466778 0.6439239460421745 0.4577401164737852
    vertex 1 0.6364447993031777 0.4376877480497167
  endloop
endfacet
facet normal 0.0514715 0.900948 -0.430863
  outer loop
    vertex 1.036942943466778 0.6439239460421745 0.4577401164737852
    vertex 1.022319707368972 0.6261824119928456 0.4188951363747663
    vertex 1 0.6364447993031777 0.4376877480497167
  endloop
endfacet
facet normal -0.0682457 0.997669 -2.59433e-15
  outer loop
    vertex 1 0.6484732162821399 0.5213472257409923
    vertex 1.022319707368971 0.6499999996401121 0.4999896093138071
    vertex 1 0.6484732162821398 0.4786527742590068
  endloop
endfacet
facet normal 0.051428 0.990861 -0.124699
  outer loop
    vertex 1 0.6484732162821398 0.4786527742590068
    vertex 1.022319707368971 0.6499999996401121 0.4999896093138071
    vertex 1.036942943466778 0.6439239460421745 0.4577401164737852
  endloop
endfacet
facet normal -0.0412929 0.958675 0.281492
  outer loop
    vertex 1 0.6364447993031779 0.5623122519502828
    vertex 1.036942943466778 0.6439239460421747 0.5422598835262141
    vertex 1 0.6484732162821399 0.5213472257409923
  endloop
endfacet
facet normal 0.0514715 0.990868 0.124624
  outer loop
    vertex 1.036942943466778 0.6439239460421747 0.5422598835262141
    vertex 1.022319707368971 0.6499999996401121 0.4999896093138071
    vertex 1 0.6484732162821399 0.5213472257409923
  endloop
endfacet
facet normal -0.0412929 0.840536 0.54018
  outer loop
    vertex 1 0.6133624361531389 0.5982291100917926
    vertex 1.036942943466784 0.6261880299246773 0.5810961226183394
    vertex 1 0.6364447993031779 0.5623122519502828
  endloop
endfacet
facet normal 0.0412929 0.908856 0.415061
  outer loop
    vertex 1 0.6364447993031779 0.5623122519502828
    vertex 1.036942943466784 0.6261880299246773 0.5810961226183394
    vertex 1.036942943466778 0.6439239460421747 0.5422598835262141
  endloop
endfacet
facet normal -0.0682457 0.653334 0.753988
  outer loop
    vertex 1 0.5810961226183399 0.626188029924677
    vertex 1.022319707368969 0.5982369626127899 0.6133556314287618
    vertex 1 0.6133624361531389 0.5982291100917926
  endloop
endfacet
facet normal 0.051428 0.743117 0.667182
  outer loop
    vertex 1 0.6133624361531389 0.5982291100917926
    vertex 1.022319707368969 0.5982369626127899 0.6133556314287618
    vertex 1.036942943466784 0.6261880299246773 0.5810961226183394
  endloop
endfacet
facet normal -0.0666685 0.414491 0.907608
  outer loop
    vertex 1 0.5422598835262145 0.6439239460421746
    vertex 1.022850160776597 0.5623122519502831 0.6364447993031777
    vertex 1 0.5810961226183399 0.626188029924677
  endloop
endfacet
facet normal 0.0674802 0.540142 0.838864
  outer loop
    vertex 1.022850160776597 0.5623122519502831 0.6364447993031777
    vertex 1.022319707368969 0.5982369626127899 0.6133556314287618
    vertex 1 0.5810961226183399 0.626188029924677
  endloop
endfacet
facet normal 0.0805015 0.266502 0.960467
  outer loop
    vertex 1.014954325589856 0.5213472257409928 0.6484732162821398
    vertex 1.022850160776597 0.5623122519502831 0.6364447993031777
    vertex 1 0.5422598835262145 0.6439239460421746
  endloop
endfacet
facet normal 0.0372124 -0.415127 0.909002
  outer loop
    vertex 1.090192378864669 0.4577401164737856 0.6439239460421746
    vertex 1.050238001697702 0.4408134035208143 0.6378294119453828
    vertex 1.090192378864669 0.4189038773816605 0.6261880299246773
  endloop
endfacet
facet normal -0.0383886 -0.257066 0.965631
  outer loop
    vertex 1.090192378864669 0.4577401164737856 0.6439239460421746
    vertex 1.069325066484759 0.4770407871424028 0.6482325016484561
    vertex 1.050238001697702 0.4408134035208143 0.6378294119453828
  endloop
endfacet
facet normal 0.032547 -0.654514 0.755349
  outer loop
    vertex 1.090192378864669 0.4189038773816605 0.6261880299246773
    vertex 1.047900791664229 0.4069303371500356 0.6176351897052661
    vertex 1.090192378864669 0.3866375638468614 0.5982291100917929
  endloop
endfacet
facet normal -0.029365 -0.510249 0.859525
  outer loop
    vertex 1.090192378864669 0.4189038773816605 0.6261880299246773
    vertex 1.050238001697702 0.4408134035208143 0.6378294119453828
    vertex 1.047900791664229 0.4069303371500356 0.6176351897052661
  endloop
endfacet
facet normal 0.0376867 -0.840656 0.540257
  outer loop
    vertex 1.090192378864669 0.3866375638468614 0.5982291100917929
    vertex 1.051276075442999 0.3715851941937421 0.577521852723868
    vertex 1.090192378864669 0.3635552006968223 0.5623122519502832
  endloop
endfacet
facet normal -0.0590206 -0.751442 0.657154
  outer loop
    vertex 1.047900791664229 0.4069303371500356 0.6176351897052661
    vertex 1.051276075442999 0.3715851941937421 0.577521852723868
    vertex 1.090192378864669 0.3866375638468614 0.5982291100917929
  endloop
endfacet
facet normal 0.0682457 -0.957256 0.281076
  outer loop
    vertex 1.090192378864669 0.3635552006968223 0.5623122519502832
    vertex 1.067872671495684 0.3560731269085575 0.5422499136344655
    vertex 1.090192378864669 0.3515267837178602 0.5213472257409932
  endloop
endfacet
facet normal -0.038902 -0.921312 0.386874
  outer loop
    vertex 1.051276075442999 0.3715851941937421 0.577521852723868
    vertex 1.067872671495684 0.3560731269085575 0.5422499136344655
    vertex 1.090192378864669 0.3635552006968223 0.5623122519502832
  endloop
endfacet
facet normal 0.0682457 -0.997669 2.59433e-15
  outer loop
    vertex 1.090192378864669 0.3515267837178602 0.5213472257409932
    vertex 1.067872671495686 0.3500000003598879 0.499989609313846
    vertex 1.090192378864669 0.3515267837178601 0.4786527742590078
  endloop
endfacet
facet normal -0.0682457 -0.987524 0.141915
  outer loop
    vertex 1.067872671495684 0.3560731269085575 0.5422499136344655
    vertex 1.067872671495686 0.3500000003598879 0.499989609313846
    vertex 1.090192378864669 0.3515267837178602 0.5213472257409932
  endloop
endfacet
facet normal 0.0412929 -0.958675 -0.281492
  outer loop
    vertex 1.090192378864669 0.3515267837178601 0.4786527742590078
    vertex 1.05324943539789 0.3560760539578252 0.4577401164737862
    vertex 1.090192378864669 0.363555200696822 0.4376877480497177
  endloop
endfacet
facet normal -0.051428 -0.990861 -0.124699
  outer loop
    vertex 1.090192378864669 0.3515267837178601 0.4786527742590078
    vertex 1.067872671495686 0.3500000003598879 0.499989609313846
    vertex 1.05324943539789 0.3560760539578252 0.4577401164737862
  endloop
endfacet
facet normal 0.0682457 -0.839292 -0.53938
  outer loop
    vertex 1.090192378864669 0.363555200696822 0.4376877480497177
    vertex 1.067872671495682 0.3738175880071351 0.4188951363747962
    vertex 1.090192378864669 0.3866375638468608 0.4017708899082079
  endloop
endfacet
facet normal -0.0514715 -0.900948 -0.430863
  outer loop
    vertex 1.05324943539789 0.3560760539578252 0.4577401164737862
    vertex 1.067872671495682 0.3738175880071351 0.4188951363747962
    vertex 1.090192378864669 0.363555200696822 0.4376877480497177
  endloop
endfacet
facet normal 0.0412929 -0.654302 -0.755105
  outer loop
    vertex 1.090192378864669 0.3866375638468608 0.4017708899082079
    vertex 1.05324943539789 0.4017708899082066 0.3866375638468618
    vertex 1.090192378864669 0.4189038773816597 0.3738119700753232
  endloop
endfacet
facet normal -0.051428 -0.766148 -0.640604
  outer loop
    vertex 1.090192378864669 0.3866375638468608 0.4017708899082079
    vertex 1.067872671495682 0.3738175880071351 0.4188951363747962
    vertex 1.05324943539789 0.4017708899082066 0.3866375638468618
  endloop
endfacet
facet normal 0.0412929 -0.415061 -0.908856
  outer loop
    vertex 1.090192378864669 0.4189038773816597 0.3738119700753232
    vertex 1.05324943539789 0.4376877480497163 0.3635552006968226
    vertex 1.090192378864669 0.4577401164737849 0.3560760539578256
  endloop
endfacet
facet normal -0.0412929 -0.54018 -0.840536
  outer loop
    vertex 1.05324943539789 0.4017708899082066 0.3866375638468618
    vertex 1.05324943539789 0.4376877480497163 0.3635552006968226
    vertex 1.090192378864669 0.4189038773816597 0.3738119700753232
  endloop
endfacet
facet normal 0.0682457 -0.141983 -0.987514
  outer loop
    vertex 1.090192378864669 0.4577401164737849 0.3560760539578256
    vertex 1.06787267149568 0.4786630592341729 0.3515253053252657
    vertex 1.090192378864669 0.4999999999999994 0.35
  endloop
endfacet
facet normal -0.0514715 -0.264371 -0.963047
  outer loop
    vertex 1.05324943539789 0.4376877480497163 0.3635552006968226
    vertex 1.06787267149568 0.4786630592341729 0.3515253053252657
    vertex 1.090192378864669 0.4577401164737849 0.3560760539578256
  endloop
endfacet
facet normal 0.0412929 0.142193 -0.988977
  outer loop
    vertex 1.090192378864669 0.4999999999999994 0.35
    vertex 1.053249435397889 0.5213472257409922 0.3515267837178601
    vertex 1.090192378864669 0.5422598835262139 0.3560760539578253
  endloop
endfacet
facet normal -0.051428 -0.0175842 -0.998522
  outer loop
    vertex 1.090192378864669 0.4999999999999994 0.35
    vertex 1.06787267149568 0.4786630592341729 0.3515253053252657
    vertex 1.053249435397889 0.5213472257409922 0.3515267837178601
  endloop
endfacet
facet normal 0.0682457 0.414446 -0.907511
  outer loop
    vertex 1.090192378864669 0.5422598835262139 0.3560760539578253
    vertex 1.067872671495679 0.5623217035013562 0.3635595174712101
    vertex 1.090192378864669 0.5810961226183392 0.3738119700753225
  endloop
endfacet
facet normal -0.0514715 0.29826 -0.953096
  outer loop
    vertex 1.053249435397889 0.5213472257409922 0.3515267837178601
    vertex 1.067872671495679 0.5623217035013562 0.3635595174712101
    vertex 1.090192378864669 0.5422598835262139 0.3560760539578253
  endloop
endfacet
facet normal 0.0412929 0.654302 -0.755105
  outer loop
    vertex 1.090192378864669 0.5810961226183392 0.3738119700753225
    vertex 1.053249435397889 0.5982291100917924 0.3866375638468609
    vertex 1.090192378864669 0.6133624361531385 0.4017708899082069
  endloop
endfacet
facet normal -0.051428 0.525049 -0.849517
  outer loop
    vertex 1.090192378864669 0.5810961226183392 0.3738119700753225
    vertex 1.067872671495679 0.5623217035013562 0.3635595174712101
    vertex 1.053249435397889 0.5982291100917924 0.3866375638468609
  endloop
endfacet
facet normal 0.0412929 0.840536 -0.54018
  outer loop
    vertex 1.090192378864669 0.6133624361531385 0.4017708899082069
    vertex 1.05324943539789 0.6261880299246769 0.4189038773816601
    vertex 1.090192378864669 0.6364447993031777 0.4376877480497167
  endloop
endfacet
facet normal -0.0412929 0.755105 -0.654302
  outer loop
    vertex 1.053249435397889 0.5982291100917924 0.3866375638468609
    vertex 1.05324943539789 0.6261880299246769 0.4189038773816601
    vertex 1.090192378864669 0.6133624361531385 0.4017708899082069
  endloop
endfacet
facet normal 0.0682457 0.957256 -0.281076
  outer loop
    vertex 1.090192378864669 0.6364447993031777 0.4376877480497167
    vertex 1.067872671495678 0.6439268730914413 0.45775008636553
    vertex 1.090192378864669 0.6484732162821398 0.4786527742590068
  endloop
endfacet
facet normal -0.0514715 0.91562 -0.398736
  outer loop
    vertex 1.05324943539789 0.6261880299246769 0.4189038773816601
    vertex 1.067872671495678 0.6439268730914413 0.45775008636553
    vertex 1.090192378864669 0.6364447993031777 0.4376877480497167
  endloop
endfacet
facet normal 0.0412929 0.999147 -2.59817e-15
  outer loop
    vertex 1.090192378864669 0.6484732162821398 0.4786527742590068
    vertex 1.05324943539789 0.65 0.4999999999999996
    vertex 1.090192378864669 0.6484732162821399 0.5213472257409923
  endloop
endfacet
facet normal -0.051428 0.985856 -0.15951
  outer loop
    vertex 1.090192378864669 0.6484732162821398 0.4786527742590068
    vertex 1.067872671495678 0.6439268730914413 0.45775008636553
    vertex 1.05324943539789 0.65 0.4999999999999996
  endloop
endfacet
facet normal 0.0682457 0.957256 0.281076
  outer loop
    vertex 1.090192378864669 0.6484732162821399 0.5213472257409923
    vertex 1.067872671495677 0.6439210183022883 0.5422698532151746
    vertex 1.090192378864669 0.6364447993031779 0.5623122519502828
  endloop
endfacet
facet normal -0.0514715 0.985842 0.159584
  outer loop
    vertex 1.05324943539789 0.65 0.4999999999999996
    vertex 1.067872671495677 0.6439210183022883 0.5422698532151746
    vertex 1.090192378864669 0.6484732162821399 0.5213472257409923
  endloop
endfacet
facet normal 0.0682457 0.839292 0.53938
  outer loop
    vertex 1.090192378864669 0.6364447993031779 0.5623122519502828
    vertex 1.067872671495694 0.6261824119928542 0.5811048636252204
    vertex 1.090192378864669 0.6133624361531389 0.5982291100917926
  endloop
endfacet
facet normal -0.0682457 0.907483 0.414509
  outer loop
    vertex 1.067872671495677 0.6439210183022883 0.5422698532151746
    vertex 1.067872671495694 0.6261824119928542 0.5811048636252204
    vertex 1.090192378864669 0.6364447993031779 0.5623122519502828
  endloop
endfacet
facet normal 0.0412929 0.654302 0.755105
  outer loop
    vertex 1.090192378864669 0.6133624361531389 0.5982291100917926
    vertex 1.05324943539789 0.598229110091793 0.6133624361531385
    vertex 1.090192378864669 0.5810961226183399 0.626188029924677
  endloop
endfacet
facet normal -0.051428 0.766148 0.640604
  outer loop
    vertex 1.090192378864669 0.6133624361531389 0.5982291100917926
    vertex 1.067872671495694 0.6261824119928542 0.5811048636252204
    vertex 1.05324943539789 0.598229110091793 0.6133624361531385
  endloop
endfacet
facet normal 0.0421293 0.415046 0.908824
  outer loop
    vertex 1.090192378864669 0.5810961226183399 0.626188029924677
    vertex 1.054212277713606 0.5638535402851305 0.6357303407240077
    vertex 1.090192378864669 0.5422598835262145 0.6439239460421746
  endloop
endfacet
facet normal -0.0385502 0.544232 0.838049
  outer loop
    vertex 1.05324943539789 0.598229110091793 0.6133624361531385
    vertex 1.054212277713606 0.5638535402851305 0.6357303407240077
    vertex 1.090192378864669 0.5810961226183399 0.626188029924677
  endloop
endfacet
facet normal -0.057524 0.268962 0.961431
  outer loop
    vertex 1.054212277713606 0.5638535402851305 0.6357303407240077
    vertex 1.070860271003121 0.5224394210223779 0.6483120776746805
    vertex 1.090192378864669 0.5422598835262145 0.6439239460421746
  endloop
endfacet
facet normal 0.0153726 -0.283448 0.958864
  outer loop
    vertex 1.050238001697702 0.4408134035208143 0.6378294119453828
    vertex 1.069325066484759 0.4770407871424028 0.6482325016484561
    vertex 1.045096189432334 0.4740619421915148 0.6477403707763172
  endloop
endfacet
facet normal -0.0155598 -0.28784 0.957552
  outer loop
    vertex 1.045096189432334 0.4740619421915148 0.6477403707763172
    vertex 1.022850160776588 0.4376877480497172 0.6364447993031778
    vertex 1.050238001697702 0.4408134035208143 0.6378294119453828
  endloop
endfacet
facet normal -0.0172802 -0.286869 0.957814
  outer loop
    vertex 1.018621367370014 0.4775706254738881 0.6483135973482115
    vertex 1.022850160776588 0.4376877480497172 0.6364447993031778
    vertex 1.045096189432334 0.4740619421915148 0.6477403707763172
  endloop
endfacet
facet normal 0.0136685 0.295684 0.955188
  outer loop
    vertex 1.044257514422512 0.5249866249681314 0.6479042547484756
    vertex 1.070860271003121 0.5224394210223779 0.6483120776746805
    vertex 1.054212277713606 0.5638535402851305 0.6357303407240077
  endloop
endfacet
facet normal 0.0071436 0.297227 0.95478
  outer loop
    vertex 1.054212277713606 0.5638535402851305 0.6357303407240077
    vertex 1.022850160776597 0.5623122519502831 0.6364447993031777
    vertex 1.044257514422512 0.5249866249681314 0.6479042547484756
  endloop
endfacet
facet normal -0.0167444 0.284663 0.958481
  outer loop
    vertex 1.044257514422512 0.5249866249681314 0.6479042547484756
    vertex 1.022850160776597 0.5623122519502831 0.6364447993031777
    vertex 1.014954325589856 0.5213472257409928 0.6484732162821398
  endloop
endfacet
facet normal 4.31437e-05 -0.91538 0.402591
  outer loop
    vertex 1.036942943466778 0.3560760539578255 0.5422598835262148
    vertex 1.067872671495684 0.3560731269085575 0.5422499136344655
    vertex 1.051276075442999 0.3715851941937421 0.577521852723868
  endloop
endfacet
facet normal -4.77984e-05 -0.989821 0.142315
  outer loop
    vertex 1.036942943466784 0.35 0.5000000000000006
    vertex 1.067872671495684 0.3560731269085575 0.5422499136344655
    vertex 1.036942943466778 0.3560760539578255 0.5422598835262148
  endloop
endfacet
facet normal 0.127208 -0.738863 0.66174
  outer loop
    vertex 1.047900791664229 0.4069303371500356 0.6176351897052661
    vertex 1.030985167031041 0.3866375638468615 0.5982291100917931
    vertex 1.051276075442999 0.3715851941937421 0.577521852723868
  endloop
endfacet
facet normal 0.0151099 -0.512676 0.858449
  outer loop
    vertex 1.050238001697702 0.4408134035208143 0.6378294119453828
    vertex 1.022850160776588 0.4376877480497172 0.6364447993031778
    vertex 1.047900791664229 0.4069303371500356 0.6176351897052661
  endloop
endfacet
facet normal -4.78154e-05 -0.90964 -0.415398
  outer loop
    vertex 1.05324943539789 0.3560760539578252 0.4577401164737862
    vertex 1.022319707368978 0.356073126908553 0.4577500863655498
    vertex 1.036942943466779 0.3738119700753224 0.418903877381661
  endloop
endfacet
facet normal 4.78154e-05 -0.909624 -0.415432
  outer loop
    vertex 1.036942943466779 0.3738119700753224 0.418903877381661
    vertex 1.067872671495682 0.3738175880071351 0.4188951363747962
    vertex 1.05324943539789 0.3560760539578252 0.4577401164737862
  endloop
endfacet
facet normal 4.78045e-05 -0.989824 -0.142297
  outer loop
    vertex 1.036942943466784 0.35 0.5000000000000006
    vertex 1.022319707368978 0.356073126908553 0.4577500863655498
    vertex 1.05324943539789 0.3560760539578252 0.4577401164737862
  endloop
endfacet
facet normal -4.78045e-05 -0.989819 -0.142333
  outer loop
    vertex 1.05324943539789 0.3560760539578252 0.4577401164737862
    vertex 1.067872671495686 0.3500000003598879 0.499989609313846
    vertex 1.036942943466784 0.35 0.5000000000000006
  endloop
endfacet
facet normal 0 -0.75575 -0.654861
  outer loop
    vertex 1.036942943466779 0.3738119700753224 0.418903877381661
    vertex 1.022264268366849 0.4017708899082066 0.3866375638468618
    vertex 1.05324943539789 0.4017708899082066 0.3866375638468618
  endloop
endfacet
facet normal -4.78045e-05 -0.755738 -0.654875
  outer loop
    vertex 1.05324943539789 0.4017708899082066 0.3866375638468618
    vertex 1.067872671495682 0.3738175880071351 0.4188951363747962
    vertex 1.036942943466779 0.3738119700753224 0.418903877381661
  endloop
endfacet
facet normal 4.77984e-05 -0.540641 -0.841254
  outer loop
    vertex 1.05324943539789 0.4017708899082066 0.3866375638468618
    vertex 1.022319707368976 0.4376782964986196 0.3635595174712211
    vertex 1.05324943539789 0.4376877480497163 0.3635552006968226
  endloop
endfacet
facet normal 0 -0.54067 -0.841235
  outer loop
    vertex 1.022264268366849 0.4017708899082066 0.3866375638468618
    vertex 1.022319707368976 0.4376782964986196 0.3635595174712211
    vertex 1.05324943539789 0.4017708899082066 0.3866375638468618
  endloop
endfacet
facet normal 4.78154e-05 0.989819 0.142333
  outer loop
    vertex 1.036942943466778 0.6439239460421747 0.5422598835262141
    vertex 1.067872671495677 0.6439210183022883 0.5422698532151746
    vertex 1.05324943539789 0.65 0.4999999999999996
  endloop
endfacet
facet normal -4.78154e-05 0.989824 0.142297
  outer loop
    vertex 1.05324943539789 0.65 0.4999999999999996
    vertex 1.022319707368971 0.6499999996401121 0.4999896093138071
    vertex 1.036942943466778 0.6439239460421747 0.5422598835262141
  endloop
endfacet
facet normal -4.77984e-05 0.909632 0.415415
  outer loop
    vertex 1.036942943466784 0.6261880299246773 0.5810961226183394
    vertex 1.067872671495677 0.6439210183022883 0.5422698532151746
    vertex 1.036942943466778 0.6439239460421747 0.5422598835262141
  endloop
endfacet
facet normal 4.78045e-05 0.755762 0.654847
  outer loop
    vertex 1.036942943466784 0.6261880299246773 0.5810961226183394
    vertex 1.022319707368969 0.5982369626127899 0.6133556314287618
    vertex 1.05324943539789 0.598229110091793 0.6133624361531385
  endloop
endfacet
facet normal -4.78045e-05 0.755738 0.654875
  outer loop
    vertex 1.05324943539789 0.598229110091793 0.6133624361531385
    vertex 1.067872671495694 0.6261824119928542 0.5811048636252204
    vertex 1.036942943466784 0.6261880299246773 0.5810961226183394
  endloop
endfacet
facet normal -4.59381e-05 0.545395 0.838179
  outer loop
    vertex 1.05324943539789 0.598229110091793 0.6133624361531385
    vertex 1.022319707368969 0.5982369626127899 0.6133556314287618
    vertex 1.054212277713606 0.5638535402851305 0.6357303407240077
  endloop
endfacet
facet normal -4.78045e-05 0.989824 -0.142297
  outer loop
    vertex 1.05324943539789 0.65 0.4999999999999996
    vertex 1.067872671495678 0.6439268730914413 0.45775008636553
    vertex 1.036942943466778 0.6439239460421745 0.4577401164737852
  endloop
endfacet
facet normal 4.78045e-05 0.989819 -0.142333
  outer loop
    vertex 1.036942943466778 0.6439239460421745 0.4577401164737852
    vertex 1.022319707368971 0.6499999996401121 0.4999896093138071
    vertex 1.05324943539789 0.65 0.4999999999999996
  endloop
endfacet
facet normal 4.78154e-05 0.90964 -0.415398
  outer loop
    vertex 1.036942943466778 0.6439239460421745 0.4577401164737852
    vertex 1.067872671495678 0.6439268730914413 0.45775008636553
    vertex 1.05324943539789 0.6261880299246769 0.4189038773816601
  endloop
endfacet
facet normal -4.78154e-05 0.909624 -0.415432
  outer loop
    vertex 1.05324943539789 0.6261880299246769 0.4189038773816601
    vertex 1.022319707368972 0.6261824119928456 0.4188951363747663
    vertex 1.036942943466778 0.6439239460421745 0.4577401164737852
  endloop
endfacet
facet normal -4.78045e-05 1.82582e-05 -1
  outer loop
    vertex 1.053249435397889 0.5213472257409922 0.3515267837178601
    vertex 1.06787267149568 0.4786630592341729 0.3515253053252657
    vertex 1.036942943466778 0.4786527742590065 0.3515267837178602
  endloop
endfacet
facet normal 4.78045e-05 -1.82582e-05 -1
  outer loop
    vertex 1.036942943466778 0.4786527742590065 0.3515267837178602
    vertex 1.022319707368974 0.5213369407657975 0.3515253053252614
    vertex 1.053249435397889 0.5213472257409922 0.3515267837178601
  endloop
endfacet
facet normal 4.78154e-05 -0.281715 -0.959498
  outer loop
    vertex 1.036942943466778 0.4786527742590065 0.3515267837178602
    vertex 1.06787267149568 0.4786630592341729 0.3515253053252657
    vertex 1.05324943539789 0.4376877480497163 0.3635552006968226
  endloop
endfacet
facet normal -4.78154e-05 -0.28175 -0.959488
  outer loop
    vertex 1.05324943539789 0.4376877480497163 0.3635552006968226
    vertex 1.022319707368976 0.4376782964986196 0.3635595174712211
    vertex 1.036942943466778 0.4786527742590065 0.3515267837178602
  endloop
endfacet
facet normal 4.78154e-05 0.28175 -0.959488
  outer loop
    vertex 1.036942943466778 0.5623122519502824 0.363555200696822
    vertex 1.067872671495679 0.5623217035013562 0.3635595174712101
    vertex 1.053249435397889 0.5213472257409922 0.3515267837178601
  endloop
endfacet
facet normal -4.78154e-05 0.281715 -0.959498
  outer loop
    vertex 1.053249435397889 0.5213472257409922 0.3515267837178601
    vertex 1.022319707368974 0.5213369407657975 0.3515253053252614
    vertex 1.036942943466778 0.5623122519502824 0.363555200696822
  endloop
endfacet
facet normal -4.78045e-05 0.540656 -0.841244
  outer loop
    vertex 1.053249435397889 0.5982291100917924 0.3866375638468609
    vertex 1.067872671495679 0.5623217035013562 0.3635595174712101
    vertex 1.036942943466778 0.5623122519502824 0.363555200696822
  endloop
endfacet
facet normal 4.78045e-05 0.540625 -0.841263
  outer loop
    vertex 1.036942943466778 0.5623122519502824 0.363555200696822
    vertex 1.022319707368973 0.5982212570994545 0.3866307596664649
    vertex 1.053249435397889 0.5982291100917924 0.3866375638468609
  endloop
endfacet
facet normal 4.77984e-05 0.75575 -0.654861
  outer loop
    vertex 1.053249435397889 0.5982291100917924 0.3866375638468609
    vertex 1.022319707368972 0.6261824119928456 0.4188951363747663
    vertex 1.05324943539789 0.6261880299246769 0.4189038773816601
  endloop
endfacet
facet normal -4.77984e-05 0.755704 -0.654913
  outer loop
    vertex 1.053249435397889 0.5982291100917924 0.3866375638468609
    vertex 1.022319707368973 0.5982212570994545 0.3866307596664649
    vertex 1.022319707368972 0.6261824119928456 0.4188951363747663
  endloop
endfacet
facet normal 4.77984e-05 0.909603 0.415478
  outer loop
    vertex 1.036942943466784 0.6261880299246773 0.5810961226183394
    vertex 1.067872671495694 0.6261824119928542 0.5811048636252204
    vertex 1.067872671495677 0.6439210183022883 0.5422698532151746
  endloop
endfacet
facet normal 4.77984e-05 -0.989831 0.142246
  outer loop
    vertex 1.036942943466784 0.35 0.5000000000000006
    vertex 1.067872671495686 0.3500000003598879 0.499989609313846
    vertex 1.067872671495684 0.3560731269085575 0.5422499136344655
  endloop
endfacet
facet normal -0.00740192 0.540578 0.841261
  outer loop
    vertex 1.054212277713606 0.5638535402851305 0.6357303407240077
    vertex 1.022319707368969 0.5982369626127899 0.6133556314287618
    vertex 1.022850160776597 0.5623122519502831 0.6364447993031777
  endloop
endfacet
facet normal 1 -0 0
  outer loop
    vertex 1 0.4577401164737856 0.6439239460421746
    vertex 1 0.4840700645607443 0.6260330584106116
    vertex 1 0.5 0.65
  endloop
endfacet
facet normal 1 0 0
  outer loop
    vertex 1 0.5 0.65
    vertex 1 0.5129080263261034 0.6118264859726992
    vertex 1 0.5422598835262145 0.6439239460421746
  endloop
endfacet
facet normal 1 0 0
  outer loop
    vertex 1 0.5 0.65
    vertex 1 0.4840700645607443 0.6260330584106116
    vertex 1 0.5129080263261034 0.6118264859726992
  endloop
endfacet
facet normal 1 -0 0
  outer loop
    vertex 1 0.4189038773816605 0.6261880299246773
    vertex 1 0.4690010756518056 0.5993308467516741
    vertex 1 0.4577401164737856 0.6439239460421746
  endloop
endfacet
facet normal 1 0 -0
  outer loop
    vertex 1 0.4690010756518056 0.5993308467516741
    vertex 1 0.4840700645607443 0.6260330584106116
    vertex 1 0.4577401164737856 0.6439239460421746
  endloop
endfacet
facet normal 1 -0 0
  outer loop
    vertex 1 0.3866375638468614 0.5982291100917929
    vertex 1 0.4288341434857512 0.5793114420847135
    vertex 1 0.4189038773816605 0.6261880299246773
  endloop
endfacet
facet normal 1 0 -0
  outer loop
    vertex 1 0.4288341434857512 0.5793114420847135
    vertex 1 0.4690010756518056 0.5993308467516741
    vertex 1 0.4189038773816605 0.6261880299246773
  endloop
endfacet
facet normal 1 0 0
  outer loop
    vertex 1 0.3635552006968223 0.5623122519502832
    vertex 1 0.3985887823510148 0.5655310049087827
    vertex 1 0.3866375638468614 0.5982291100917929
  endloop
endfacet
facet normal 1 0 0
  outer loop
    vertex 1 0.3866375638468614 0.5982291100917929
    vertex 1 0.3985887823510148 0.5655310049087827
    vertex 1 0.4288341434857512 0.5793114420847135
  endloop
endfacet
facet normal 1 0 0
  outer loop
    vertex 1 0.3515267837178602 0.5213472257409932
    vertex 1 0.3873955526155907 0.5376799068356481
    vertex 1 0.3635552006968223 0.5623122519502832
  endloop
endfacet
facet normal 1 0 -0
  outer loop
    vertex 1 0.3873955526155907 0.5376799068356481
    vertex 1 0.3985887823510148 0.5655310049087827
    vertex 1 0.3635552006968223 0.5623122519502832
  endloop
endfacet
facet normal 1 0 0
  outer loop
    vertex 1 0.3515267837178601 0.4786527742590078
    vertex 1 0.3888785458832043 0.5016697580520186
    vertex 1 0.3515267837178602 0.5213472257409932
  endloop
endfacet
facet normal 1 0 0
  outer loop
    vertex 1 0.3888785458832043 0.5016697580520186
    vertex 1 0.3873955526155907 0.5376799068356481
    vertex 1 0.3515267837178602 0.5213472257409932
  endloop
endfacet
facet normal 1 0 -0
  outer loop
    vertex 1 0.363555200696822 0.4376877480497177
    vertex 1 0.3866430107358677 0.4678689230137061
    vertex 1 0.3515267837178601 0.4786527742590078
  endloop
endfacet
facet normal 1 -0 0
  outer loop
    vertex 1 0.3515267837178601 0.4786527742590078
    vertex 1 0.3866430107358677 0.4678689230137061
    vertex 1 0.3888785458832043 0.5016697580520186
  endloop
endfacet
facet normal 1 0 -0
  outer loop
    vertex 1 0.3866375638468608 0.4017708899082079
    vertex 1 0.4051269170898865 0.44053206067412
    vertex 1 0.363555200696822 0.4376877480497177
  endloop
endfacet
facet normal 1 0 0
  outer loop
    vertex 1 0.4051269170898865 0.44053206067412
    vertex 1 0.3866430107358677 0.4678689230137061
    vertex 1 0.363555200696822 0.4376877480497177
  endloop
endfacet
facet normal 1 0 -0
  outer loop
    vertex 1 0.4189038773816597 0.3738119700753232
    vertex 1 0.424169615393694 0.411753736798294
    vertex 1 0.3866375638468608 0.4017708899082079
  endloop
endfacet
facet normal 1 0 0
  outer loop
    vertex 1 0.3866375638468608 0.4017708899082079
    vertex 1 0.424169615393694 0.411753736798294
    vertex 1 0.4051269170898865 0.44053206067412
  endloop
endfacet
facet normal 1 0 0
  outer loop
    vertex 1 0.4577401164737849 0.3560760539578256
    vertex 1 0.4483041004265491 0.3908425704791338
    vertex 1 0.4189038773816597 0.3738119700753232
  endloop
endfacet
facet normal 1 0 0
  outer loop
    vertex 1 0.4483041004265491 0.3908425704791338
    vertex 1 0.424169615393694 0.411753736798294
    vertex 1 0.4189038773816597 0.3738119700753232
  endloop
endfacet
facet normal 1 0 0
  outer loop
    vertex 1 0.4999999999999994 0.35
    vertex 1 0.4860634790801575 0.3917234223880987
    vertex 1 0.4577401164737849 0.3560760539578256
  endloop
endfacet
facet normal 1 0 0
  outer loop
    vertex 1 0.4860634790801575 0.3917234223880987
    vertex 1 0.4483041004265491 0.3908425704791338
    vertex 1 0.4577401164737849 0.3560760539578256
  endloop
endfacet
facet normal 1 0 0
  outer loop
    vertex 1 0.5422598835262139 0.3560760539578253
    vertex 1 0.5198805863919864 0.3781663091315834
    vertex 1 0.4999999999999994 0.35
  endloop
endfacet
facet normal 1 0 -0
  outer loop
    vertex 1 0.4999999999999994 0.35
    vertex 1 0.5198805863919864 0.3781663091315834
    vertex 1 0.4860634790801575 0.3917234223880987
  endloop
endfacet
facet normal 1 0 0
  outer loop
    vertex 1 0.5810961226183392 0.3738119700753225
    vertex 1 0.550936388313906 0.3867217192540091
    vertex 1 0.5422598835262139 0.3560760539578253
  endloop
endfacet
facet normal 1 0 0
  outer loop
    vertex 1 0.550936388313906 0.3867217192540091
    vertex 1 0.5198805863919864 0.3781663091315834
    vertex 1 0.5422598835262139 0.3560760539578253
  endloop
endfacet
facet normal 1 0 0
  outer loop
    vertex 1 0.6133624361531385 0.4017708899082069
    vertex 1 0.5732169704886209 0.4103361097776389
    vertex 1 0.5810961226183392 0.3738119700753225
  endloop
endfacet
facet normal 1 0 0
  outer loop
    vertex 1 0.5732169704886209 0.4103361097776389
    vertex 1 0.550936388313906 0.3867217192540091
    vertex 1 0.5810961226183392 0.3738119700753225
  endloop
endfacet
facet normal 1 0 0
  outer loop
    vertex 1 0.6364447993031777 0.4376877480497167
    vertex 1 0.5993652286559424 0.4317504982660012
    vertex 1 0.6133624361531385 0.4017708899082069
  endloop
endfacet
facet normal 1 0 0
  outer loop
    vertex 1 0.6133624361531385 0.4017708899082069
    vertex 1 0.5993652286559424 0.4317504982660012
    vertex 1 0.5732169704886209 0.4103361097776389
  endloop
endfacet
facet normal 1 0 0
  outer loop
    vertex 1 0.6484732162821398 0.4786527742590068
    vertex 1 0.60599066958116 0.4630437416699465
    vertex 1 0.6364447993031777 0.4376877480497167
  endloop
endfacet
facet normal 1 0 0
  outer loop
    vertex 1 0.60599066958116 0.4630437416699465
    vertex 1 0.5993652286559424 0.4317504982660012
    vertex 1 0.6364447993031777 0.4376877480497167
  endloop
endfacet
facet normal 1 0 0
  outer loop
    vertex 1 0.6484732162821399 0.5213472257409923
    vertex 1 0.6114987366980982 0.4999999999999993
    vertex 1 0.6484732162821398 0.4786527742590068
  endloop
endfacet
facet normal 1 0 0
  outer loop
    vertex 1 0.6114987366980982 0.4999999999999993
    vertex 1 0.60599066958116 0.4630437416699465
    vertex 1 0.6484732162821398 0.4786527742590068
  endloop
endfacet
facet normal 1 0 0
  outer loop
    vertex 1 0.6364447993031779 0.5623122519502828
    vertex 1 0.6104690214962176 0.5365213531084385
    vertex 1 0.6484732162821399 0.5213472257409923
  endloop
endfacet
facet normal 1 0 0
  outer loop
    vertex 1 0.6484732162821399 0.5213472257409923
    vertex 1 0.6104690214962176 0.5365213531084385
    vertex 1 0.6114987366980982 0.4999999999999993
  endloop
endfacet
facet normal 1 0 0
  outer loop
    vertex 1 0.6133624361531389 0.5982291100917926
    vertex 1 0.6019436272812804 0.5673306335044549
    vertex 1 0.6364447993031779 0.5623122519502828
  endloop
endfacet
facet normal 1 0 0
  outer loop
    vertex 1 0.6364447993031779 0.5623122519502828
    vertex 1 0.6019436272812804 0.5673306335044549
    vertex 1 0.6104690214962176 0.5365213531084385
  endloop
endfacet
facet normal 1 0 0
  outer loop
    vertex 1 0.5810961226183399 0.626188029924677
    vertex 1 0.5764885073874408 0.5899269200618378
    vertex 1 0.6133624361531389 0.5982291100917926
  endloop
endfacet
facet normal 1 -0 0
  outer loop
    vertex 1 0.5764885073874408 0.5899269200618378
    vertex 1 0.6019436272812804 0.5673306335044549
    vertex 1 0.6133624361531389 0.5982291100917926
  endloop
endfacet
facet normal 1 0 0
  outer loop
    vertex 1 0.5422598835262145 0.6439239460421746
    vertex 1 0.5510385557398327 0.6118542443661525
    vertex 1 0.5810961226183399 0.626188029924677
  endloop
endfacet
facet normal 1 0 0
  outer loop
    vertex 1 0.5810961226183399 0.626188029924677
    vertex 1 0.5510385557398327 0.6118542443661525
    vertex 1 0.5764885073874408 0.5899269200618378
  endloop
endfacet
facet normal 1 0 0
  outer loop
    vertex 1 0.5129080263261034 0.6118264859726992
    vertex 1 0.5510385557398327 0.6118542443661525
    vertex 1 0.5422598835262145 0.6439239460421746
  endloop
endfacet
facet normal 1 0 0
  outer loop
    vertex 1 0.4288341434857512 0.5793114420847135
    vertex 1 0.4243123185092485 0.5343294630443247
    vertex 1 0.4673014080522433 0.5528276673121284
  endloop
endfacet
facet normal 1 0 -0
  outer loop
    vertex 1 0.4673014080522433 0.5528276673121284
    vertex 1 0.4690010756518056 0.5993308467516741
    vertex 1 0.4288341434857512 0.5793114420847135
  endloop
endfacet
facet normal 1 0 0
  outer loop
    vertex 1 0.4288341434857512 0.5793114420847135
    vertex 1 0.3985887823510148 0.5655310049087827
    vertex 1 0.4243123185092485 0.5343294630443247
  endloop
endfacet
facet normal 1 0 0
  outer loop
    vertex 1 0.5732169704886209 0.4103361097776389
    vertex 1 0.5678112677536157 0.4459140019244974
    vertex 1 0.530407922302603 0.4138238648768551
  endloop
endfacet
facet normal 1 0 0
  outer loop
    vertex 1 0.530407922302603 0.4138238648768551
    vertex 1 0.550936388313906 0.3867217192540091
    vertex 1 0.5732169704886209 0.4103361097776389
  endloop
endfacet
facet normal 1 0 -0
  outer loop
    vertex 1 0.5732169704886209 0.4103361097776389
    vertex 1 0.5993652286559424 0.4317504982660012
    vertex 1 0.5678112677536157 0.4459140019244974
  endloop
endfacet
facet normal 1 0 0
  outer loop
    vertex 1 0.4241276062915657 0.4808022740336662
    vertex 1 0.3866430107358677 0.4678689230137061
    vertex 1 0.4051269170898865 0.44053206067412
  endloop
endfacet
facet normal 1 0 0
  outer loop
    vertex 1 0.4051269170898865 0.44053206067412
    vertex 1 0.437066616743878 0.4472377026512875
    vertex 1 0.4241276062915657 0.4808022740336662
  endloop
endfacet
facet normal 1 0 -0
  outer loop
    vertex 1 0.424169615393694 0.411753736798294
    vertex 1 0.437066616743878 0.4472377026512875
    vertex 1 0.4051269170898865 0.44053206067412
  endloop
endfacet
facet normal 1 0 0
  outer loop
    vertex 1 0.5764885073874408 0.5899269200618378
    vertex 1 0.5510385557398327 0.6118542443661525
    vertex 1 0.5398786188517679 0.5822545769933882
  endloop
endfacet
facet normal 1 -0 0
  outer loop
    vertex 1 0.5398786188517679 0.5822545769933882
    vertex 1 0.5729883915755976 0.5540200179699585
    vertex 1 0.5764885073874408 0.5899269200618378
  endloop
endfacet
facet normal 1 0 0
  outer loop
    vertex 1 0.5764885073874408 0.5899269200618378
    vertex 1 0.5729883915755976 0.5540200179699585
    vertex 1 0.6019436272812804 0.5673306335044549
  endloop
endfacet
facet normal 1 0 0
  outer loop
    vertex 1 0.6104690214962176 0.5365213531084385
    vertex 1 0.5750014785874246 0.5201001363994369
    vertex 1 0.6114987366980982 0.4999999999999993
  endloop
endfacet
facet normal 1 0 0
  outer loop
    vertex 1 0.5750014785874246 0.5201001363994369
    vertex 1 0.5724862186700583 0.4826861211407803
    vertex 1 0.6114987366980982 0.4999999999999993
  endloop
endfacet
facet normal 1 -0 0
  outer loop
    vertex 1 0.5724862186700583 0.4826861211407803
    vertex 1 0.60599066958116 0.4630437416699465
    vertex 1 0.6114987366980982 0.4999999999999993
  endloop
endfacet
facet normal 1 0 0
  outer loop
    vertex 1 0.4949935447656424 0.439532652268789
    vertex 1 0.4586896973249628 0.4240765564435813
    vertex 1 0.4860634790801575 0.3917234223880987
  endloop
endfacet
facet normal 1 0 0
  outer loop
    vertex 1 0.4860634790801575 0.3917234223880987
    vertex 1 0.530407922302603 0.4138238648768551
    vertex 1 0.4949935447656424 0.439532652268789
  endloop
endfacet
facet normal 1 0 0
  outer loop
    vertex 1 0.4586896973249628 0.4240765564435813
    vertex 1 0.4483041004265491 0.3908425704791338
    vertex 1 0.4860634790801575 0.3917234223880987
  endloop
endfacet
facet normal 1 -0 0
  outer loop
    vertex 1 0.4860634790801575 0.3917234223880987
    vertex 1 0.5198805863919864 0.3781663091315834
    vertex 1 0.530407922302603 0.4138238648768551
  endloop
endfacet
facet normal 1 -0 0
  outer loop
    vertex 1 0.4690010756518056 0.5993308467516741
    vertex 1 0.5049497544804413 0.5697403333547314
    vertex 1 0.5129080263261034 0.6118264859726992
  endloop
endfacet
facet normal 1 0 0
  outer loop
    vertex 1 0.5129080263261034 0.6118264859726992
    vertex 1 0.4840700645607443 0.6260330584106116
    vertex 1 0.4690010756518056 0.5993308467516741
  endloop
endfacet
facet normal 1 0 0
  outer loop
    vertex 1 0.5049497544804413 0.5697403333547314
    vertex 1 0.5398786188517679 0.5822545769933882
    vertex 1 0.5129080263261034 0.6118264859726992
  endloop
endfacet
facet normal 1 0 -0
  outer loop
    vertex 1 0.5398786188517679 0.5822545769933882
    vertex 1 0.5510385557398327 0.6118542443661525
    vertex 1 0.5129080263261034 0.6118264859726992
  endloop
endfacet
facet normal 1 -0 0
  outer loop
    vertex 1 0.3888785458832043 0.5016697580520186
    vertex 1 0.4241276062915657 0.4808022740336662
    vertex 1 0.4243123185092485 0.5343294630443247
  endloop
endfacet
facet normal 1 0 0
  outer loop
    vertex 1 0.4243123185092485 0.5343294630443247
    vertex 1 0.3873955526155907 0.5376799068356481
    vertex 1 0.3888785458832043 0.5016697580520186
  endloop
endfacet
facet normal 1 0 0
  outer loop
    vertex 1 0.3888785458832043 0.5016697580520186
    vertex 1 0.3866430107358677 0.4678689230137061
    vertex 1 0.4241276062915657 0.4808022740336662
  endloop
endfacet
facet normal 1 0 0
  outer loop
    vertex 1 0.6104690214962176 0.5365213531084385
    vertex 1 0.5729883915755976 0.5540200179699585
    vertex 1 0.5750014785874246 0.5201001363994369
  endloop
endfacet
facet normal 1 0 0
  outer loop
    vertex 1 0.6019436272812804 0.5673306335044549
    vertex 1 0.5729883915755976 0.5540200179699585
    vertex 1 0.6104690214962176 0.5365213531084385
  endloop
endfacet
facet normal 1 0 0
  outer loop
    vertex 1 0.5750014785874246 0.5201001363994369
    vertex 1 0.5385781031193229 0.5040789255636008
    vertex 1 0.5724862186700583 0.4826861211407803
  endloop
endfacet
facet normal 1 0 0
  outer loop
    vertex 1 0.5750014785874246 0.5201001363994369
    vertex 1 0.5389741318818541 0.5430748425312308
    vertex 1 0.5385781031193229 0.5040789255636008
  endloop
endfacet
facet normal 1 0 0
  outer loop
    vertex 1 0.5750014785874246 0.5201001363994369
    vertex 1 0.5729883915755976 0.5540200179699585
    vertex 1 0.5389741318818541 0.5430748425312308
  endloop
endfacet
facet normal 1 0 0
  outer loop
    vertex 1 0.5385781031193229 0.5040789255636008
    vertex 1 0.5336200217699318 0.4617569598906653
    vertex 1 0.5724862186700583 0.4826861211407803
  endloop
endfacet
facet normal 1 -0 0
  outer loop
    vertex 1 0.5336200217699318 0.4617569598906653
    vertex 1 0.5678112677536157 0.4459140019244974
    vertex 1 0.5724862186700583 0.4826861211407803
  endloop
endfacet
facet normal 1 0 0
  outer loop
    vertex 1 0.5724862186700583 0.4826861211407803
    vertex 1 0.5678112677536157 0.4459140019244974
    vertex 1 0.60599066958116 0.4630437416699465
  endloop
endfacet
facet normal 1 0 0
  outer loop
    vertex 1 0.5385781031193229 0.5040789255636008
    vertex 1 0.5000642389999719 0.4855021894120799
    vertex 1 0.5336200217699318 0.4617569598906653
  endloop
endfacet
facet normal 1 0 0
  outer loop
    vertex 1 0.5385781031193229 0.5040789255636008
    vertex 1 0.5033866351132148 0.5278951258460984
    vertex 1 0.5000642389999719 0.4855021894120799
  endloop
endfacet
facet normal 1 0 -0
  outer loop
    vertex 1 0.5385781031193229 0.5040789255636008
    vertex 1 0.5389741318818541 0.5430748425312308
    vertex 1 0.5033866351132148 0.5278951258460984
  endloop
endfacet
facet normal 1 0 0
  outer loop
    vertex 1 0.5000642389999719 0.4855021894120799
    vertex 1 0.4949935447656424 0.439532652268789
    vertex 1 0.5336200217699318 0.4617569598906653
  endloop
endfacet
facet normal 1 -0 0
  outer loop
    vertex 1 0.4949935447656424 0.439532652268789
    vertex 1 0.530407922302603 0.4138238648768551
    vertex 1 0.5336200217699318 0.4617569598906653
  endloop
endfacet
facet normal 1 0 0
  outer loop
    vertex 1 0.530407922302603 0.4138238648768551
    vertex 1 0.5678112677536157 0.4459140019244974
    vertex 1 0.5336200217699318 0.4617569598906653
  endloop
endfacet
facet normal 1 0 0
  outer loop
    vertex 1 0.5033866351132148 0.5278951258460984
    vertex 1 0.4653497286168905 0.5093777928912583
    vertex 1 0.5000642389999719 0.4855021894120799
  endloop
endfacet
facet normal 1 0 0
  outer loop
    vertex 1 0.4653497286168905 0.5093777928912583
    vertex 1 0.4645724908204852 0.4666511915505916
    vertex 1 0.5000642389999719 0.4855021894120799
  endloop
endfacet
facet normal 1 -0 0
  outer loop
    vertex 1 0.4645724908204852 0.4666511915505916
    vertex 1 0.4949935447656424 0.439532652268789
    vertex 1 0.5000642389999719 0.4855021894120799
  endloop
endfacet
facet normal 1 0 0
  outer loop
    vertex 1 0.5033866351132148 0.5278951258460984
    vertex 1 0.4673014080522433 0.5528276673121284
    vertex 1 0.4653497286168905 0.5093777928912583
  endloop
endfacet
facet normal 1 0 -0
  outer loop
    vertex 1 0.5033866351132148 0.5278951258460984
    vertex 1 0.5049497544804413 0.5697403333547314
    vertex 1 0.4673014080522433 0.5528276673121284
  endloop
endfacet
facet normal 1 0 0
  outer loop
    vertex 1 0.5389741318818541 0.5430748425312308
    vertex 1 0.5049497544804413 0.5697403333547314
    vertex 1 0.5033866351132148 0.5278951258460984
  endloop
endfacet
facet normal 1 0 0
  outer loop
    vertex 1 0.4653497286168905 0.5093777928912583
    vertex 1 0.4241276062915657 0.4808022740336662
    vertex 1 0.4645724908204852 0.4666511915505916
  endloop
endfacet
facet normal 1 0 0
  outer loop
    vertex 1 0.4673014080522433 0.5528276673121284
    vertex 1 0.4243123185092485 0.5343294630443247
    vertex 1 0.4653497286168905 0.5093777928912583
  endloop
endfacet
facet normal 1 0 0
  outer loop
    vertex 1 0.4243123185092485 0.5343294630443247
    vertex 1 0.4241276062915657 0.4808022740336662
    vertex 1 0.4653497286168905 0.5093777928912583
  endloop
endfacet
facet normal 1 0 0
  outer loop
    vertex 1 0.4645724908204852 0.4666511915505916
    vertex 1 0.4586896973249628 0.4240765564435813
    vertex 1 0.4949935447656424 0.439532652268789
  endloop
endfacet
facet normal 1 0 0
  outer loop
    vertex 1 0.4645724908204852 0.4666511915505916
    vertex 1 0.437066616743878 0.4472377026512875
    vertex 1 0.4586896973249628 0.4240765564435813
  endloop
endfacet
facet normal 1 0 0
  outer loop
    vertex 1 0.4241276062915657 0.4808022740336662
    vertex 1 0.437066616743878 0.4472377026512875
    vertex 1 0.4645724908204852 0.4666511915505916
  endloop
endfacet
facet normal 1 0 0
  outer loop
    vertex 1 0.4673014080522433 0.5528276673121284
    vertex 1 0.5049497544804413 0.5697403333547314
    vertex 1 0.4690010756518056 0.5993308467516741
  endloop
endfacet
facet normal 1 0 0
  outer loop
    vertex 1 0.4243123185092485 0.5343294630443247
    vertex 1 0.3985887823510148 0.5655310049087827
    vertex 1 0.3873955526155907 0.5376799068356481
  endloop
endfacet
facet normal 1 0 -0
  outer loop
    vertex 1 0.5389741318818541 0.5430748425312308
    vertex 1 0.5398786188517679 0.5822545769933882
    vertex 1 0.5049497544804413 0.5697403333547314
  endloop
endfacet
facet normal 1 0 0
  outer loop
    vertex 1 0.5389741318818541 0.5430748425312308
    vertex 1 0.5729883915755976 0.5540200179699585
    vertex 1 0.5398786188517679 0.5822545769933882
  endloop
endfacet
facet normal 1 0 0
  outer loop
    vertex 1 0.4586896973249628 0.4240765564435813
    vertex 1 0.424169615393694 0.411753736798294
    vertex 1 0.4483041004265491 0.3908425704791338
  endloop
endfacet
facet normal 1 0 0
  outer loop
    vertex 1 0.4586896973249628 0.4240765564435813
    vertex 1 0.437066616743878 0.4472377026512875
    vertex 1 0.424169615393694 0.411753736798294
  endloop
endfacet
facet normal 1 0 0
  outer loop
    vertex 1 0.530407922302603 0.4138238648768551
    vertex 1 0.5198805863919864 0.3781663091315834
    vertex 1 0.550936388313906 0.3867217192540091
  endloop
endfacet
facet normal 1 -0 0
  outer loop
    vertex 1 0.5678112677536157 0.4459140019244974
    vertex 1 0.5993652286559424 0.4317504982660012
    vertex 1 0.60599066958116 0.4630437416699465
  endloop
endfacet
facet normal -0.893413 -0.063933 0.444664
  outer loop
    vertex 1.090192378864668 0.5 0.65
    vertex 1.07111978275199 0.4818211894236806 0.6090658300006607
    vertex 1.090192378864669 0.4577401164737856 0.6439239460421746
  endloop
endfacet
facet normal -0.887925 0.0654631 0.455306
  outer loop
    vertex 1.090192378864669 0.5422598835262145 0.6439239460421746
    vertex 1.07318457451253 0.5164576636251073 0.6144655647790801
    vertex 1.090192378864668 0.5 0.65
  endloop
endfacet
facet normal -0.904202 -0.0126528 0.426917
  outer loop
    vertex 1.07318457451253 0.5164576636251073 0.6144655647790801
    vertex 1.07111978275199 0.4818211894236806 0.6090658300006607
    vertex 1.090192378864668 0.5 0.65
  endloop
endfacet
facet normal -0.878589 -0.198394 0.434421
  outer loop
    vertex 1.090192378864669 0.4577401164737856 0.6439239460421746
    vertex 1.076513799649687 0.4484173764598084 0.6120023712546268
    vertex 1.090192378864669 0.4189038773816605 0.6261880299246773
  endloop
endfacet
facet normal -0.9018 -0.108856 0.418218
  outer loop
    vertex 1.090192378864669 0.4577401164737856 0.6439239460421746
    vertex 1.07111978275199 0.4818211894236806 0.6090658300006607
    vertex 1.076513799649687 0.4484173764598084 0.6120023712546268
  endloop
endfacet
facet normal -0.887769 -0.301425 0.347863
  outer loop
    vertex 1.090192378864669 0.4189038773816605 0.6261880299246773
    vertex 1.073244752977639 0.4238911388128478 0.5872580912831982
    vertex 1.090192378864669 0.3866375638468614 0.5982291100917929
  endloop
endfacet
facet normal -0.900245 -0.243881 0.360666
  outer loop
    vertex 1.090192378864669 0.4189038773816605 0.6261880299246773
    vertex 1.076513799649687 0.4484173764598084 0.6120023712546268
    vertex 1.073244752977639 0.4238911388128478 0.5872580912831982
  endloop
endfacet
facet normal -0.887913 -0.386985 0.2487
  outer loop
    vertex 1.090192378864669 0.3866375638468614 0.5982291100917929
    vertex 1.073494352804382 0.3991389797240873 0.5580661834274855
    vertex 1.090192378864669 0.3635552006968223 0.5623122519502832
  endloop
endfacet
facet normal -0.903478 -0.33071 0.272688
  outer loop
    vertex 1.073244752977639 0.4238911388128478 0.5872580912831982
    vertex 1.073494352804382 0.3991389797240873 0.5580661834274855
    vertex 1.090192378864669 0.3866375638468614 0.5982291100917929
  endloop
endfacet
facet normal -0.878065 -0.459156 0.13482
  outer loop
    vertex 1.090192378864669 0.3635552006968223 0.5623122519502832
    vertex 1.076761737659633 0.3804363517272919 0.5323324296169772
    vertex 1.090192378864669 0.3515267837178602 0.5213472257409932
  endloop
endfacet
facet normal -0.898932 -0.400702 0.177083
  outer loop
    vertex 1.073494352804382 0.3991389797240873 0.5580661834274855
    vertex 1.076761737659633 0.3804363517272919 0.5323324296169772
    vertex 1.090192378864669 0.3635552006968223 0.5623122519502832
  endloop
endfacet
facet normal -0.886584 -0.462567 1.20286e-15
  outer loop
    vertex 1.090192378864669 0.3515267837178602 0.5213472257409932
    vertex 1.073688116078016 0.3831598763665257 0.4996417922411732
    vertex 1.090192378864669 0.3515267837178601 0.4786527742590078
  endloop
endfacet
facet normal -0.898733 -0.43584 0.0481895
  outer loop
    vertex 1.090192378864669 0.3515267837178602 0.5213472257409932
    vertex 1.076761737659633 0.3804363517272919 0.5323324296169772
    vertex 1.073688116078016 0.3831598763665257 0.4996417922411732
  endloop
endfacet
facet normal -0.878667 -0.458096 -0.134509
  outer loop
    vertex 1.090192378864669 0.3515267837178601 0.4786527742590078
    vertex 1.07650255899875 0.381366035619246 0.4664570087637701
    vertex 1.090192378864669 0.363555200696822 0.4376877480497177
  endloop
endfacet
facet normal -0.899287 -0.43416 -0.0528006
  outer loop
    vertex 1.073688116078016 0.3831598763665257 0.4996417922411732
    vertex 1.07650255899875 0.381366035619246 0.4664570087637701
    vertex 1.090192378864669 0.3515267837178601 0.4786527742590078
  endloop
endfacet
facet normal -0.885998 -0.39008 -0.250689
  outer loop
    vertex 1.090192378864669 0.363555200696822 0.4376877480497177
    vertex 1.074059327784237 0.3988690330893798 0.4397565526481444
    vertex 1.090192378864669 0.3866375638468608 0.4017708899082079
  endloop
endfacet
facet normal -0.898665 -0.400009 -0.179986
  outer loop
    vertex 1.090192378864669 0.363555200696822 0.4376877480497177
    vertex 1.07650255899875 0.381366035619246 0.4664570087637701
    vertex 1.074059327784237 0.3988690330893798 0.4397565526481444
  endloop
endfacet
facet normal -0.887925 -0.301228 -0.347635
  outer loop
    vertex 1.090192378864669 0.3866375638468608 0.4017708899082079
    vertex 1.073184574512514 0.4242701758205613 0.4126031239578123
    vertex 1.090192378864669 0.4189038773816597 0.3738119700753232
  endloop
endfacet
facet normal -0.902873 -0.328079 -0.277821
  outer loop
    vertex 1.090192378864669 0.3866375638468608 0.4017708899082079
    vertex 1.074059327784237 0.3988690330893798 0.4397565526481444
    vertex 1.073184574512514 0.4242701758205613 0.4126031239578123
  endloop
endfacet
facet normal -0.875984 -0.200371 -0.438751
  outer loop
    vertex 1.090192378864669 0.4189038773816597 0.3738119700753232
    vertex 1.077395564384453 0.4462529799455852 0.3868714027400702
    vertex 1.090192378864669 0.4577401164737849 0.3560760539578256
  endloop
endfacet
facet normal -0.899204 -0.248928 -0.359816
  outer loop
    vertex 1.073184574512514 0.4242701758205613 0.4126031239578123
    vertex 1.077395564384453 0.4462529799455852 0.3868714027400702
    vertex 1.090192378864669 0.4189038773816597 0.3738119700753232
  endloop
endfacet
facet normal -0.89345 -0.0639225 -0.444591
  outer loop
    vertex 1.090192378864669 0.4577401164737849 0.3560760539578256
    vertex 1.071244589241198 0.4795405069881664 0.3910191295759193
    vertex 1.090192378864669 0.4999999999999994 0.35
  endloop
endfacet
facet normal -0.901494 -0.114578 -0.417349
  outer loop
    vertex 1.090192378864669 0.4577401164737849 0.3560760539578256
    vertex 1.077395564384453 0.4462529799455852 0.3868714027400702
    vertex 1.071244589241198 0.4795405069881664 0.3910191295759193
  endloop
endfacet
facet normal -0.887852 0.0654833 -0.455447
  outer loop
    vertex 1.090192378864669 0.4999999999999994 0.35
    vertex 1.073238500224302 0.5181285129505551 0.3856565294382411
    vertex 1.090192378864669 0.5422598835262139 0.3560760539578253
  endloop
endfacet
facet normal -0.905431 -0.0121825 -0.424318
  outer loop
    vertex 1.090192378864669 0.4999999999999994 0.35
    vertex 1.071244589241198 0.4795405069881664 0.3910191295759193
    vertex 1.073238500224302 0.5181285129505551 0.3856565294382411
  endloop
endfacet
facet normal -0.877496 0.199226 -0.436245
  outer loop
    vertex 1.090192378864669 0.5422598835262139 0.3560760539578253
    vertex 1.076881976282874 0.5506555938649454 0.3866838231714423
    vertex 1.090192378864669 0.5810961226183392 0.3738119700753225
  endloop
endfacet
facet normal -0.899233 0.114065 -0.422338
  outer loop
    vertex 1.073238500224302 0.5181285129505551 0.3856565294382411
    vertex 1.076881976282874 0.5506555938649454 0.3866838231714423
    vertex 1.090192378864669 0.5422598835262139 0.3560760539578253
  endloop
endfacet
facet normal -0.883067 0.307291 -0.354633
  outer loop
    vertex 1.090192378864669 0.5810961226183392 0.3738119700753225
    vertex 1.074987932913636 0.5774513014283743 0.4085141603091706
    vertex 1.090192378864669 0.6133624361531385 0.4017708899082069
  endloop
endfacet
facet normal -0.898751 0.237002 -0.368887
  outer loop
    vertex 1.090192378864669 0.5810961226183392 0.3738119700753225
    vertex 1.076881976282874 0.5506555938649454 0.3866838231714423
    vertex 1.074987932913636 0.5774513014283743 0.4085141603091706
  endloop
endfacet
facet normal -0.877728 0.403094 -0.259053
  outer loop
    vertex 1.090192378864669 0.6133624361531385 0.4017708899082069
    vertex 1.076796257653287 0.6041261553216674 0.4327879553526405
    vertex 1.090192378864669 0.6364447993031777 0.4376877480497167
  endloop
endfacet
facet normal -0.899339 0.326068 -0.291323
  outer loop
    vertex 1.074987932913636 0.5774513014283743 0.4085141603091706
    vertex 1.076796257653287 0.6041261553216674 0.4327879553526405
    vertex 1.090192378864669 0.6133624361531385 0.4017708899082069
  endloop
endfacet
facet normal -0.890617 0.436334 -0.128119
  outer loop
    vertex 1.090192378864669 0.6364447993031777 0.4376877480497167
    vertex 1.072159863110398 0.6084267444209561 0.4676194591237313
    vertex 1.090192378864669 0.6484732162821398 0.4786527742590068
  endloop
endfacet
facet normal -0.901122 0.399173 -0.169233
  outer loop
    vertex 1.090192378864669 0.6364447993031777 0.4376877480497167
    vertex 1.076796257653287 0.6041261553216674 0.4327879553526405
    vertex 1.072159863110398 0.6084267444209561 0.4676194591237313
  endloop
endfacet
facet normal -0.87674 0.480965 -1.2507e-15
  outer loop
    vertex 1.090192378864669 0.6484732162821398 0.4786527742590068
    vertex 1.077122683005237 0.6246488037508992 0.5008034881512649
    vertex 1.090192378864669 0.6484732162821399 0.5213472257409923
  endloop
endfacet
facet normal -0.901614 0.426246 -0.0735306
  outer loop
    vertex 1.072159863110398 0.6084267444209561 0.4676194591237313
    vertex 1.077122683005237 0.6246488037508992 0.5008034881512649
    vertex 1.090192378864669 0.6484732162821398 0.4786527742590068
  endloop
endfacet
facet normal -0.88101 0.453934 0.133287
  outer loop
    vertex 1.090192378864669 0.6484732162821399 0.5213472257409923
    vertex 1.075708236100858 0.6169391548775218 0.5330039742096067
    vertex 1.090192378864669 0.6364447993031779 0.5623122519502828
  endloop
endfacet
facet normal -0.897467 0.436261 0.0650301
  outer loop
    vertex 1.090192378864669 0.6484732162821399 0.5213472257409923
    vertex 1.077122683005237 0.6246488037508992 0.5008034881512649
    vertex 1.075708236100858 0.6169391548775218 0.5330039742096067
  endloop
endfacet
facet normal -0.887796 0.387176 0.248823
  outer loop
    vertex 1.090192378864669 0.6364447993031779 0.5623122519502828
    vertex 1.073234254090297 0.5972109040134099 0.5628550875581374
    vertex 1.090192378864669 0.6133624361531389 0.5982291100917926
  endloop
endfacet
facet normal -0.901244 0.392098 0.18444
  outer loop
    vertex 1.090192378864669 0.6364447993031779 0.5623122519502828
    vertex 1.075708236100858 0.6169391548775218 0.5330039742096067
    vertex 1.073234254090297 0.5972109040134099 0.5628550875581374
  endloop
endfacet
facet normal -0.887517 0.301743 0.34823
  outer loop
    vertex 1.090192378864669 0.6133624361531389 0.5982291100917926
    vertex 1.073536985157947 0.5727595956384435 0.5909628642192675
    vertex 1.090192378864669 0.5810961226183399 0.626188029924677
  endloop
endfacet
facet normal -0.903144 0.31906 0.287282
  outer loop
    vertex 1.073234254090297 0.5972109040134099 0.5628550875581374
    vertex 1.073536985157947 0.5727595956384435 0.5909628642192675
    vertex 1.090192378864669 0.6133624361531389 0.5982291100917926
  endloop
endfacet
facet normal -0.876288 0.200142 0.43825
  outer loop
    vertex 1.090192378864669 0.5810961226183399 0.626188029924677
    vertex 1.077259801790207 0.5519065742831393 0.6136595434913933
    vertex 1.090192378864669 0.5422598835262145 0.6439239460421746
  endloop
endfacet
facet normal -0.898323 0.240086 0.367931
  outer loop
    vertex 1.090192378864669 0.5810961226183399 0.626188029924677
    vertex 1.073536985157947 0.5727595956384435 0.5909628642192675
    vertex 1.077259801790207 0.5519065742831393 0.6136595434913933
  endloop
endfacet
facet normal -0.900138 0.113046 0.42068
  outer loop
    vertex 1.090192378864669 0.5422598835262145 0.6439239460421746
    vertex 1.077259801790207 0.5519065742831393 0.6136595434913933
    vertex 1.07318457451253 0.5164576636251073 0.6144655647790801
  endloop
endfacet
facet normal -0.935078 -0.182135 0.304067
  outer loop
    vertex 1.076513799649687 0.4484173764598084 0.6120023712546268
    vertex 1.062625930197405 0.4604084767700798 0.5764765015768123
    vertex 1.073244752977639 0.4238911388128478 0.5872580912831982
  endloop
endfacet
facet normal -0.949682 -0.206669 0.235355
  outer loop
    vertex 1.062625930197405 0.4604084767700798 0.5764765015768123
    vertex 1.061134904635652 0.4347023666873334 0.5478871148004431
    vertex 1.073244752977639 0.4238911388128478 0.5872580912831982
  endloop
endfacet
facet normal -0.939753 -0.264663 0.216376
  outer loop
    vertex 1.061134904635652 0.4347023666873334 0.5478871148004431
    vertex 1.073494352804382 0.3991389797240873 0.5580661834274855
    vertex 1.073244752977639 0.4238911388128478 0.5872580912831982
  endloop
endfacet
facet normal -0.927865 0.283433 -0.242346
  outer loop
    vertex 1.074987932913636 0.5774513014283743 0.4085141603091706
    vertex 1.064677255318295 0.5717214898629331 0.4412891895888016
    vertex 1.076796257653287 0.6041261553216674 0.4327879553526405
  endloop
endfacet
facet normal -0.928626 0.192673 -0.317066
  outer loop
    vertex 1.076881976282874 0.5506555938649454 0.3866838231714423
    vertex 1.065387972560281 0.5409392062990676 0.4144431462461658
    vertex 1.074987932913636 0.5774513014283743 0.4085141603091706
  endloop
endfacet
facet normal -0.943239 0.205655 -0.26078
  outer loop
    vertex 1.074987932913636 0.5774513014283743 0.4085141603091706
    vertex 1.065387972560281 0.5409392062990676 0.4144431462461658
    vertex 1.064677255318295 0.5717214898629331 0.4412891895888016
  endloop
endfacet
facet normal -0.943052 0.245876 0.224048
  outer loop
    vertex 1.060037803588183 0.5532356437877725 0.5555687941432591
    vertex 1.073536985157947 0.5727595956384435 0.5909628642192675
    vertex 1.073234254090297 0.5972109040134099 0.5628550875581374
  endloop
endfacet
facet normal -0.948252 0.252706 0.192243
  outer loop
    vertex 1.073234254090297 0.5972109040134099 0.5628550875581374
    vertex 1.063451311952216 0.5815691279741547 0.5351614382474545
    vertex 1.060037803588183 0.5532356437877725 0.5555687941432591
  endloop
endfacet
facet normal -0.932586 0.331835 0.142016
  outer loop
    vertex 1.075708236100858 0.6169391548775218 0.5330039742096067
    vertex 1.063451311952216 0.5815691279741547 0.5351614382474545
    vertex 1.073234254090297 0.5972109040134099 0.5628550875581374
  endloop
endfacet
facet normal -0.947748 -0.198884 -0.249439
  outer loop
    vertex 1.073184574512514 0.4242701758205613 0.4126031239578123
    vertex 1.063522223396313 0.4304381683378065 0.4443975262420021
    vertex 1.061962832462667 0.4617477673105467 0.4253584779674059
  endloop
endfacet
facet normal -0.93607 -0.176753 -0.304189
  outer loop
    vertex 1.061962832462667 0.4617477673105467 0.4253584779674059
    vertex 1.077395564384453 0.4462529799455852 0.3868714027400702
    vertex 1.073184574512514 0.4242701758205613 0.4126031239578123
  endloop
endfacet
facet normal -0.932846 -0.277605 -0.229639
  outer loop
    vertex 1.074059327784237 0.3988690330893798 0.4397565526481444
    vertex 1.063522223396313 0.4304381683378065 0.4443975262420021
    vertex 1.073184574512514 0.4242701758205613 0.4126031239578123
  endloop
endfacet
facet normal -0.94838 0.00710748 0.317058
  outer loop
    vertex 1.058547400993954 0.5046794124958369 0.5709470621753595
    vertex 1.07111978275199 0.4818211894236806 0.6090658300006607
    vertex 1.07318457451253 0.5164576636251073 0.6144655647790801
  endloop
endfacet
facet normal -0.950608 0.0487177 0.306546
  outer loop
    vertex 1.07318457451253 0.5164576636251073 0.6144655647790801
    vertex 1.066092095242779 0.5384725222687146 0.5889728421859608
    vertex 1.058547400993954 0.5046794124958369 0.5709470621753595
  endloop
endfacet
facet normal -0.927051 0.114691 0.356964
  outer loop
    vertex 1.077259801790207 0.5519065742831393 0.6136595434913933
    vertex 1.066092095242779 0.5384725222687146 0.5889728421859608
    vertex 1.07318457451253 0.5164576636251073 0.6144655647790801
  endloop
endfacet
facet normal -0.933827 -0.352633 -0.0601371
  outer loop
    vertex 1.063598425098695 0.4137845400872923 0.4767398975476846
    vertex 1.07650255899875 0.381366035619246 0.4664570087637701
    vertex 1.073688116078016 0.3831598763665257 0.4996417922411732
  endloop
endfacet
facet normal -0.948044 -0.318047 -0.0076243
  outer loop
    vertex 1.073688116078016 0.3831598763665257 0.4996417922411732
    vertex 1.064426918895527 0.4102790046538279 0.5199539054470664
    vertex 1.063598425098695 0.4137845400872923 0.4767398975476846
  endloop
endfacet
facet normal -0.93083 -0.360909 0.0574499
  outer loop
    vertex 1.073688116078016 0.3831598763665257 0.4996417922411732
    vertex 1.076761737659633 0.3804363517272919 0.5323324296169772
    vertex 1.064426918895527 0.4102790046538279 0.5199539054470664
  endloop
endfacet
facet normal -0.952195 0.298946 -0.0629013
  outer loop
    vertex 1.058283871102109 0.5663246478719617 0.4775781083427474
    vertex 1.065406627501793 0.5947734419051068 0.5049605483120091
    vertex 1.072159863110398 0.6084267444209561 0.4676194591237313
  endloop
endfacet
facet normal -0.950694 0.283691 -0.125303
  outer loop
    vertex 1.072159863110398 0.6084267444209561 0.4676194591237313
    vertex 1.064677255318295 0.5717214898629331 0.4412891895888016
    vertex 1.058283871102109 0.5663246478719617 0.4775781083427474
  endloop
endfacet
facet normal -0.93207 0.360406 -0.0367895
  outer loop
    vertex 1.065406627501793 0.5947734419051068 0.5049605483120091
    vertex 1.077122683005237 0.6246488037508992 0.5008034881512649
    vertex 1.072159863110398 0.6084267444209561 0.4676194591237313
  endloop
endfacet
facet normal -0.937398 0.30787 -0.162789
  outer loop
    vertex 1.076796257653287 0.6041261553216674 0.4327879553526405
    vertex 1.064677255318295 0.5717214898629331 0.4412891895888016
    vertex 1.072159863110398 0.6084267444209561 0.4676194591237313
  endloop
endfacet
facet normal -0.94119 0.00167859 -0.337873
  outer loop
    vertex 1.073238500224302 0.5181285129505551 0.3856565294382411
    vertex 1.071244589241198 0.4795405069881664 0.3910191295759193
    vertex 1.060926403491543 0.5042390367664467 0.4198845435077709
  endloop
endfacet
facet normal -0.94731 0.0687783 -0.312846
  outer loop
    vertex 1.060926403491543 0.5042390367664467 0.4198845435077709
    vertex 1.065387972560281 0.5409392062990676 0.4144431462461658
    vertex 1.073238500224302 0.5181285129505551 0.3856565294382411
  endloop
endfacet
facet normal -0.931386 0.115234 -0.345314
  outer loop
    vertex 1.073238500224302 0.5181285129505551 0.3856565294382411
    vertex 1.065387972560281 0.5409392062990676 0.4144431462461658
    vertex 1.076881976282874 0.5506555938649454 0.3866838231714423
  endloop
endfacet
facet normal -0.93767 -0.122835 0.325096
  outer loop
    vertex 1.076513799649687 0.4484173764598084 0.6120023712546268
    vertex 1.07111978275199 0.4818211894236806 0.6090658300006607
    vertex 1.062625930197405 0.4604084767700798 0.5764765015768123
  endloop
endfacet
facet normal -0.973419 -0.142741 0.179112
  outer loop
    vertex 1.062625930197405 0.4604084767700798 0.5764765015768123
    vertex 1.053533596217043 0.4734255476008913 0.5374362111823312
    vertex 1.061134904635652 0.4347023666873334 0.5478871148004431
  endloop
endfacet
facet normal -0.976443 -0.0642276 0.205995
  outer loop
    vertex 1.062625930197405 0.4604084767700798 0.5764765015768123
    vertex 1.058547400993954 0.5046794124958369 0.5709470621753595
    vertex 1.053533596217043 0.4734255476008913 0.5374362111823312
  endloop
endfacet
facet normal -0.957332 -0.0527063 0.284143
  outer loop
    vertex 1.062625930197405 0.4604084767700798 0.5764765015768123
    vertex 1.07111978275199 0.4818211894236806 0.6090658300006607
    vertex 1.058547400993954 0.5046794124958369 0.5709470621753595
  endloop
endfacet
facet normal -0.98095 -0.164802 0.102849
  outer loop
    vertex 1.053533596217043 0.4734255476008913 0.5374362111823312
    vertex 1.055067389647944 0.4456062731008143 0.5074885128656562
    vertex 1.061134904635652 0.4347023666873334 0.5478871148004431
  endloop
endfacet
facet normal -0.970171 -0.227264 0.0843707
  outer loop
    vertex 1.055067389647944 0.4456062731008143 0.5074885128656562
    vertex 1.064426918895527 0.4102790046538279 0.5199539054470664
    vertex 1.061134904635652 0.4347023666873334 0.5478871148004431
  endloop
endfacet
facet normal -0.946973 -0.288778 0.140889
  outer loop
    vertex 1.061134904635652 0.4347023666873334 0.5478871148004431
    vertex 1.064426918895527 0.4102790046538279 0.5199539054470664
    vertex 1.073494352804382 0.3991389797240873 0.5580661834274855
  endloop
endfacet
facet normal -0.993408 -0.104795 0.0464687
  outer loop
    vertex 1.053533596217043 0.4734255476008913 0.5374362111823312
    vertex 1.050392172684509 0.4850641313126246 0.4965258615680255
    vertex 1.055067389647944 0.4456062731008143 0.5074885128656562
  endloop
endfacet
facet normal -0.997231 -0.0300419 0.0680288
  outer loop
    vertex 1.053533596217043 0.4734255476008913 0.5374362111823312
    vertex 1.051565745176979 0.5147334513007794 0.5268313428846859
    vertex 1.050392172684509 0.4850641313126246 0.4965258615680255
  endloop
endfacet
facet normal -0.987938 -0.00735531 0.154673
  outer loop
    vertex 1.053533596217043 0.4734255476008913 0.5374362111823312
    vertex 1.058547400993954 0.5046794124958369 0.5709470621753595
    vertex 1.051565745176979 0.5147334513007794 0.5268313428846859
  endloop
endfacet
facet normal -0.991543 -0.126056 -0.0308535
  outer loop
    vertex 1.050392172684509 0.4850641313126246 0.4965258615680255
    vertex 1.054968993100726 0.456049478461371 0.4679834944991938
    vertex 1.055067389647944 0.4456062731008143 0.5074885128656562
  endloop
endfacet
facet normal -0.976184 -0.210328 -0.053169
  outer loop
    vertex 1.054968993100726 0.456049478461371 0.4679834944991938
    vertex 1.063598425098695 0.4137845400872923 0.4767398975476846
    vertex 1.055067389647944 0.4456062731008143 0.5074885128656562
  endloop
endfacet
facet normal -0.966445 -0.256862 -0.00230819
  outer loop
    vertex 1.063598425098695 0.4137845400872923 0.4767398975476846
    vertex 1.064426918895527 0.4102790046538279 0.5199539054470664
    vertex 1.055067389647944 0.4456062731008143 0.5074885128656562
  endloop
endfacet
facet normal -0.999522 0.0292031 0.0101162
  outer loop
    vertex 1.051565745176979 0.5147334513007794 0.5268313428846859
    vertex 1.05148169124812 0.526111221712229 0.4856813603784507
    vertex 1.050392172684509 0.4850641313126246 0.4965258615680255
  endloop
endfacet
facet normal -0.997633 0.00845085 -0.0682426
  outer loop
    vertex 1.05148169124812 0.526111221712229 0.4856813603784507
    vertex 1.05323443055234 0.4956314868014051 0.4562837229073712
    vertex 1.050392172684509 0.4850641313126246 0.4965258615680255
  endloop
endfacet
facet normal -0.993636 -0.0696967 -0.0884814
  outer loop
    vertex 1.05323443055234 0.4956314868014051 0.4562837229073712
    vertex 1.054968993100726 0.456049478461371 0.4679834944991938
    vertex 1.050392172684509 0.4850641313126246 0.4965258615680255
  endloop
endfacet
facet normal -0.993953 0.1053 0.0311453
  outer loop
    vertex 1.051565745176979 0.5147334513007794 0.5268313428846859
    vertex 1.055447435510829 0.5551146660720976 0.5141831003879224
    vertex 1.05148169124812 0.526111221712229 0.4856813603784507
  endloop
endfacet
facet normal -0.984708 0.130725 0.115156
  outer loop
    vertex 1.051565745176979 0.5147334513007794 0.5268313428846859
    vertex 1.060037803588183 0.5532356437877725 0.5555687941432591
    vertex 1.055447435510829 0.5551146660720976 0.5141831003879224
  endloop
endfacet
facet normal -0.980906 0.0854401 0.174708
  outer loop
    vertex 1.051565745176979 0.5147334513007794 0.5268313428846859
    vertex 1.058547400993954 0.5046794124958369 0.5709470621753595
    vertex 1.060037803588183 0.5532356437877725 0.5555687941432591
  endloop
endfacet
facet normal -0.991195 0.0578692 -0.119096
  outer loop
    vertex 1.05148169124812 0.526111221712229 0.4856813603784507
    vertex 1.056382481031455 0.5342079452076439 0.4488280444049002
    vertex 1.05323443055234 0.4956314868014051 0.4562837229073712
  endloop
endfacet
facet normal -0.986515 0.161429 -0.0270064
  outer loop
    vertex 1.055447435510829 0.5551146660720976 0.5141831003879224
    vertex 1.058283871102109 0.5663246478719617 0.4775781083427474
    vertex 1.05148169124812 0.526111221712229 0.4856813603784507
  endloop
endfacet
facet normal -0.984261 0.146605 -0.0986786
  outer loop
    vertex 1.05148169124812 0.526111221712229 0.4856813603784507
    vertex 1.058283871102109 0.5663246478719617 0.4775781083427474
    vertex 1.056382481031455 0.5342079452076439 0.4488280444049002
  endloop
endfacet
facet normal -0.979491 0.0418393 -0.197095
  outer loop
    vertex 1.056382481031455 0.5342079452076439 0.4488280444049002
    vertex 1.060926403491543 0.5042390367664467 0.4198845435077709
    vertex 1.05323443055234 0.4956314868014051 0.4562837229073712
  endloop
endfacet
facet normal -0.980325 -0.0942277 -0.173447
  outer loop
    vertex 1.05323443055234 0.4956314868014051 0.4562837229073712
    vertex 1.061962832462667 0.4617477673105467 0.4253584779674059
    vertex 1.054968993100726 0.456049478461371 0.4679834944991938
  endloop
endfacet
facet normal -0.974522 -0.0518807 -0.218207
  outer loop
    vertex 1.05323443055234 0.4956314868014051 0.4562837229073712
    vertex 1.060926403491543 0.5042390367664467 0.4198845435077709
    vertex 1.061962832462667 0.4617477673105467 0.4253584779674059
  endloop
endfacet
facet normal -0.972487 0.201439 0.117011
  outer loop
    vertex 1.060037803588183 0.5532356437877725 0.5555687941432591
    vertex 1.063451311952216 0.5815691279741547 0.5351614382474545
    vertex 1.055447435510829 0.5551146660720976 0.5141831003879224
  endloop
endfacet
facet normal -0.969919 0.243426 -0.000609436
  outer loop
    vertex 1.055447435510829 0.5551146660720976 0.5141831003879224
    vertex 1.065406627501793 0.5947734419051068 0.5049605483120091
    vertex 1.058283871102109 0.5663246478719617 0.4775781083427474
  endloop
endfacet
facet normal -0.966028 0.253857 0.0484461
  outer loop
    vertex 1.055447435510829 0.5551146660720976 0.5141831003879224
    vertex 1.063451311952216 0.5815691279741547 0.5351614382474545
    vertex 1.065406627501793 0.5947734419051068 0.5049605483120091
  endloop
endfacet
facet normal -0.970461 0.0994085 0.219825
  outer loop
    vertex 1.058547400993954 0.5046794124958369 0.5709470621753595
    vertex 1.066092095242779 0.5384725222687146 0.5889728421859608
    vertex 1.060037803588183 0.5532356437877725 0.5555687941432591
  endloop
endfacet
facet normal -0.94761 0.190893 0.256115
  outer loop
    vertex 1.060037803588183 0.5532356437877725 0.5555687941432591
    vertex 1.066092095242779 0.5384725222687146 0.5889728421859608
    vertex 1.073536985157947 0.5727595956384435 0.5909628642192675
  endloop
endfacet
facet normal -0.97199 0.186068 -0.143574
  outer loop
    vertex 1.058283871102109 0.5663246478719617 0.4775781083427474
    vertex 1.064677255318295 0.5717214898629331 0.4412891895888016
    vertex 1.056382481031455 0.5342079452076439 0.4488280444049002
  endloop
endfacet
facet normal -0.967916 0.0824761 -0.237354
  outer loop
    vertex 1.056382481031455 0.5342079452076439 0.4488280444049002
    vertex 1.065387972560281 0.5409392062990676 0.4144431462461658
    vertex 1.060926403491543 0.5042390367664467 0.4198845435077709
  endloop
endfacet
facet normal -0.961118 0.168562 -0.218721
  outer loop
    vertex 1.064677255318295 0.5717214898629331 0.4412891895888016
    vertex 1.065387972560281 0.5409392062990676 0.4144431462461658
    vertex 1.056382481031455 0.5342079452076439 0.4488280444049002
  endloop
endfacet
facet normal -0.970807 -0.158062 -0.180419
  outer loop
    vertex 1.061962832462667 0.4617477673105467 0.4253584779674059
    vertex 1.063522223396313 0.4304381683378065 0.4443975262420021
    vertex 1.054968993100726 0.456049478461371 0.4679834944991938
  endloop
endfacet
facet normal -0.968901 -0.22092 -0.111472
  outer loop
    vertex 1.054968993100726 0.456049478461371 0.4679834944991938
    vertex 1.063522223396313 0.4304381683378065 0.4443975262420021
    vertex 1.063598425098695 0.4137845400872923 0.4767398975476846
  endloop
endfacet
facet normal -0.955228 -0.0606068 -0.289596
  outer loop
    vertex 1.060926403491543 0.5042390367664467 0.4198845435077709
    vertex 1.071244589241198 0.4795405069881664 0.3910191295759193
    vertex 1.061962832462667 0.4617477673105467 0.4253584779674059
  endloop
endfacet
facet normal -0.937255 -0.133034 -0.322266
  outer loop
    vertex 1.071244589241198 0.4795405069881664 0.3910191295759193
    vertex 1.077395564384453 0.4462529799455852 0.3868714027400702
    vertex 1.061962832462667 0.4617477673105467 0.4253584779674059
  endloop
endfacet
facet normal -0.927614 0.370449 0.0479487
  outer loop
    vertex 1.075708236100858 0.6169391548775218 0.5330039742096067
    vertex 1.077122683005237 0.6246488037508992 0.5008034881512649
    vertex 1.065406627501793 0.5947734419051068 0.5049605483120091
  endloop
endfacet
facet normal -0.93996 0.330839 0.0837918
  outer loop
    vertex 1.065406627501793 0.5947734419051068 0.5049605483120091
    vertex 1.063451311952216 0.5815691279741547 0.5351614382474545
    vertex 1.075708236100858 0.6169391548775218 0.5330039742096067
  endloop
endfacet
facet normal -0.93467 -0.33046 -0.1311
  outer loop
    vertex 1.074059327784237 0.3988690330893798 0.4397565526481444
    vertex 1.07650255899875 0.381366035619246 0.4664570087637701
    vertex 1.063598425098695 0.4137845400872923 0.4767398975476846
  endloop
endfacet
facet normal -0.944358 -0.293329 -0.148815
  outer loop
    vertex 1.063598425098695 0.4137845400872923 0.4767398975476846
    vertex 1.063522223396313 0.4304381683378065 0.4443975262420021
    vertex 1.074059327784237 0.3988690330893798 0.4397565526481444
  endloop
endfacet
facet normal -0.934147 -0.334476 0.124481
  outer loop
    vertex 1.064426918895527 0.4102790046538279 0.5199539054470664
    vertex 1.076761737659633 0.3804363517272919 0.5323324296169772
    vertex 1.073494352804382 0.3991389797240873 0.5580661834274855
  endloop
endfacet
facet normal -0.929296 0.183167 0.320716
  outer loop
    vertex 1.073536985157947 0.5727595956384435 0.5909628642192675
    vertex 1.066092095242779 0.5384725222687146 0.5889728421859608
    vertex 1.077259801790207 0.5519065742831393 0.6136595434913933
  endloop
endfacet
endsolid Joint
